<svg xmlns="http://www.w3.org/2000/svg" width="700" height="700" fill="currentColor" viewBox="0 0 700 700">
  <path d="M392.51 60.743c4.144 1.731 7.33 10.853 9.67 14.661 12.959 21.102 13.854 46.586 1.264 68.137-4.985 8.535-13.659 16.363-17.689 25.443-3.115 13.44-4.805 33.748-4.915 47.861 3.065-4.713 6.844-11.606 8.489-16.874 4.445-14.523 5.54-28.136 16.945-39.485 12.99-12.918 32.68-18.992 50.825-17.292 2.76.259 4.401 1.103 6.326 2.98.475 1.341.829 2.086.189 3.508-10.35 23.096-17.55 51.353-46.7 55.956-6.34 1.441-15.415.322-21.17 3.288-12.08 6.222-14.46 23.056-17.02 34.721-2.545 11.614-4.359 21.843-6.169 33.393-1.02 6.547-1.885 14.103-3.84 20.113 12.42-13.57 8.889-30.313 20.319-45.571 7.905-10.556 18.855-17.795 32.375-19.922 11.35-1.231 25.755-1.981 36.205 3.037 3.97 1.905-6.534 16.226-8.229 19.755-11.305 23.504-28.456 36.962-55.326 35.023-25.355-1.831-28.355 32.545-31.24 50.884a873.476 873.476 0 0 0-7.064 54.906c3.995-6.71 9.064-13.447 12.909-20.202 5.26-9.872 9.6-18.953 17.145-27.342 17.855-20.11 43.645-17.317 67.755-13.923 5.17.728 20.305 3.686 20.805 10.064-1.865 6.741-26.009 32.399-32.114 37.131-20.02 15.512-44.3 7.642-67.04 4.062-15.07 5.085-20.235 21.24-21.995 35.56-2.585 21.07-6.146 46.505-3.366 67.555 1.3-4.455 4.24-10.015 5.015-14.055 5.315-27.675 16.931-51.17 46.056-59.27 4.22-1.395 10.23-3.2 14.625-3.535 6.715-.515 34.42-1.555 36.665 5.075-.895 7.01-21.571 37.249-27.141 43.135-18.985 20.415-34.26 21.4-58.295 22.105-27.43.8-11.78 89.545-10.88 105.295 4.53-13.74 9.66-27.43 15.015-40.855 13.045-32.7 50.04-42.88 80.525-28.35 2.28 1.085 5 2.235 5.89 4.725-.956 4.025-9.184 11.72-12.319 15.495-8.745 10.53-19.011 20.945-31.231 27.435a70.256 70.256 0 0 1-16.865 6.245c-16.465 3.695-31.985-1.46-35.6 19.655-2.445 14.3.006 27.32 2.741 41.36.905 4.655 8.254 18.039-1.22 17.215-4.115-2.99-8.241-28.555-9.571-35.38-.225-4.665-1.74-12.93-2.49-17.87-2.715-17.245-4.26-34.651-12.7-50.241-8.029-15.909-15.212-12.304-30.035-13.269-32.923-2.145-56.124-31.625-74.507-55.865-2.564-3.385-6.65-8.09-5.284-12.44 2.44-2.275 24.303-2.785 29.366-3.23 29.407-2.585 58.217 10.645 69.558 39.045 3.27 8.19 5.304 16.425 7.792 24.884 1.004 2.915 8.48 18.485 10.091 19.916l.379-.34c-2.045-21.605-1.46-43.455-2.95-65.21-.6-8.785-3.925-20.605-9.026-28.055-.576-.84-3.414-3.26-4.321-4.035-3.714-.82-9.708-1.22-13.397-1.44-28.306-1.68-54.921-15.605-67.694-41.725-1.138-2.33-3.859-8.004-4.955-9.855-9.054-15.692-3.026-13.95 9.909-13.697 31.794.185 67.024 11.602 78.455 44.462 3.681 10.58 8.765 22.96 12.01 33.475.46-2.371.995-16.49 1.255-20.445.325-14.85 4.909-32.785 4.019-47.315-1.135-18.438-3.77-35.74-25.641-34.857-19.259.778-37.444-7.168-50.676-20.594-9.993-10.138-21.721-26.002-25.128-40.102-2.296-9.875 27.903-2.56 32.698-1.829 29.442 4.489 56.904 18.808 63.792 50.016.94 4.273 5.786 23.317 8.23 26.948l.525-.782c1.05-12.725 2.995-26.347 4.875-39.303 2.91-15.35 5.48-35.979-4.069-49.676-3.615-5.18-25.118-8.815-33.303-14.836-21.136-15.545-29.873-39.123-35.438-63.847-.66-2.933-1.46-7.109.221-9.65 5.399-2.849 34.431 8.073 40.306 11.117a77.592 77.592 0 0 1 14.563 9.856c13.22 11.264 20.761 27.39 21.436 44.631.38 9.712-2.135 18.125 1.09 27.364.865 2.477 1.195 6.001 1.415 8.646 1.615-6.256 2.809-18.019 3.804-25.019 2.855-20.076 9.485-41.872 5.14-61.948-5.68-26.257-21.01-18.934-39.46-30.998-18.874-12.343-21.14-32.325-25.697-52.6-.545-2.424-1.045-6.183.518-8.283.605-.812 1.589-1.402 2.548-1.392 5.001.053 12.654 3.508 17.36 5.186 21.906 7.81 33.702 23.057 38.617 45.504 2.19 10.017 2.224 18.927 6.649 28.184.99 2.072 1.44 4.77 3.24 6.201l.675-.34c-.205-8.057 3.061-28.256 1.481-33.804-5.39-18.991-17.986-31.958-14.906-54.285a58.382 58.382 0 0 1 4.415-15.622c3.525-7.927 17.681-29.246 24.491-34.358Zm55.254 465.472c-1.274-.54-1.565-.286-3.084-.111-19.25 4.14-37.121 8.291-52.611 21.841 3.855-1.04 34.925-8.18 36.245-7.63-3.135 4.095-22.874 7.35-28.425 8.785-9.489 2.455-12.075 3.385-18.58 11 1.95-.315 4.11-.72 6.065-.9 6.895-.425 13.8-.675 20.71-.76-14.35 4.46-23.574.001-35.579 11.67 30.114-1.8 45.284-8.45 65.309-31.94 3.45-4.045 6.726-7.425 9.95-11.955Zm1.835-4.145c-11.479-5.015-19.364-6.015-31.854-5.32-27.02 2.195-42.416 22-47.231 47.445 6.18-5.395 11.245-12.15 15.425-19.19 5.39-9.07 12.411-14.785 21.306-20.13l1.515-.735.224.45c-2.84 3.19-6.75 5.785-9.915 8.745-4.57 4.29-7.985 8.895-11.58 13.985 14.845-12.725 27.825-16.93 46.49-21.405 4.625-1.11 11.19-2.435 15.62-3.845Zm-149.078-46.205c-13.21-8.275-30.419-10.465-45.798-9.075-7.492.325-14.977.8-22.451 1.425 5.161 5.68 9.378 11.74 14.104 17.605 16.589 20.59 37.747 41.985 65.945 42.705 5.742.145 11.458.165 17.099 1.495-4.548-3.39-7.589-6.67-11.499-9.66-7.831 1.42-21.775-.6-29.371-3.47 7.731.365 19.681.275 26.943 1.055-2.218-1.605-6.708-5.105-9.019-5.905-.362.255-1.139 1.395-.792 1.36-4.804.435-30.127-4.325-32.184-6.94 3.207-.49 26.773 4.015 31.889 4.745-11.868-12.31-43.408-24.465-58.491-33.815 3.693.87 5.454 1.3 8.974 2.67 12.929 4.95 24.289 11.385 36.639 17.12-5.03-6.495-11.927-13.7-18.103-19.18-3.073-2.73-6.694-5.005-9.649-7.57 14.5 5.275 27.22 21.63 38.017 32.155 3.881 3.785 9.986 7.345 14.362 10.74-3.247-6.04-5.372-11.295-9.099-17.235-3.553-5.665-7.441-10.156-11.102-15.486 6.706 5.675 13.382 12.721 17.112 20.711 4.327 9.27 8.478 14.435 14.848 22.305-4.75-19.77-10.212-36.385-28.374-47.755Zm142.508-53.3c-12.72 5.985-23.215 13.34-35.14 20.71-9.359 5.79-16.29 8.175-24.53 15.61 5.885-.855 11.83-.32 17.825-.96 6.14-.66 13.001-2.87 18.901-3.38-13.145 5.9-24.711 7.395-39.091 6.95-1.93 1.495-3.585 2.77-5.415 4.415l7.045.13c4.44.01 9.631-.101 14.006.189-8.9 3.08-16.181 2.335-24.926 3-3.065 2.78-5.835 5.531-8.765 8.456 6.7-.795 13.301-.76 20.075-1.395 18.075-1.68 31.05-10.95 42.3-24.745 2.55-3.12 17.726-26.34 17.906-28.79l-.191-.19Zm3.521-5.23c-6.925-1.45-12.096-1.675-19.231-1.6-37.985 1.165-60.415 18.146-65.805 56.326 5.755-7.74 10.016-17.356 15.5-25.415 3.855-5.66 8.625-9.946 12.515-15.516-2.295 5.91-13.695 21.605-17.875 30.24l-.595 1.685.33.375c2.706-1.685 7.165-5.885 9.67-8.13 11.12-9.975 22.371-24.025 35.731-30.68-8.335 8.42-15.86 14.15-23.625 23.375 16.13-7.495 36.07-21.92 53.385-30.66ZM299.579 396.01c-13.984-7.55-40.179-11.165-55.981-10.63 2.24 2.995 4.605 7.725 6.101 11.2 14.419 33.485 42.94 45.509 78.723 45.359-4.851-5.644-6.859-8.714-14.828-7.689-3.859.495-8.5.5-12.392.245l-.163-.565-.884.195c3.585-1.63 13.317-2.16 17.622-2.535-2.558-1.185-9.965-5.09-12.208-5.495-13.489-2.43-24.909-2.15-37.832-8.22 11.81 1.535 20.236 3.405 32.327 3.745-13.026-6.41-34.631-14.835-45.134-24.73a183.246 183.246 0 0 1 14.203 6.64c9.54 5.13 19.162 8.615 28.779 13.48-6.258-6.76-12.971-12.53-19.296-19.02 9.573 4.66 16.493 13.26 24.657 19.785 3.941 3.15 11.341 7.46 15.956 10.37-3.303-5.165-6.553-10.315-10.008-15.39-2.219-3.26-5.987-7.29-7.873-10.49 5.764 4.65 10.057 8.925 14.253 15.11 5.542 8.17 6.666 11.67 14.03 18.479-5.645-17.814-12.841-30.549-30.052-39.844Zm170.245-52.394c-14.56-4.775-30.535-8.076-45.965-7.399-15.245 1.007-25.269 4.794-36.104 16.518-4.835 5.235-12.355 18.864-14.505 25.665 2.415-2.161 6.234-5.372 8.194-7.834 7.42-9.313 14.56-19.262 25.585-24.638-8.445 8.891-15.424 14.323-21.189 25.37 2.88-1.728 8.805-5.003 11.245-6.866 12.11-9.243 25.625-19.663 41.46-21.241-14.83 5.964-22.221 9.39-34.976 20.104 10.69-4.246 48.985-15.104 59.285-15.055-9.789 4.816-15.584 5.016-25.729 7.584-11.025 3.212-23.296 7.512-33.806 10.442 15.815.866 27.75-1.885 42.08-2.382-21.885 8.247-33.815 2.06-52.285 8.265 9.755 1.805 18.515 5.691 28.335 8.255-19.485.274-22.659-10.175-44.359.45 3.995.128 9.279.37 13.059 1.451 20.92 5.985 37.321 5.715 54.151-9.165 9.4-8.315 16.674-21.897 25.524-29.524ZM253.396 299.55c10.968 22.396 23.621 40.077 48.337 49.101 12.37 4.516 24.191 1.731 35.028 4.776-1.102-1.236-4.368-4.95-5.526-5.697-9.549-6.154-20.522-3.986-31.761-8.614 6.195.641 13.173 1.372 19.372 1.576 2.604.447 3.951.698 6.455 1.497-3.816-3.466-6.875-6.101-11.199-8.956-10.023-.534-33.221-5.541-41.984-10.449 11.621 1.979 26.905 4.783 38.36 7.166-18.788-11.03-38.29-20.078-57.082-30.4Zm62.118 11.707c-17.208-10.169-44.056-16.38-63.872-15.258 3.311 1.976 6.902 4.124 10.405 5.719 14.834 6.754 29.117 14.793 44.018 21.374-4.917-6.542-12.733-12.799-19.141-18.079 12.927 6.451 18.253 12.889 28.156 22.887 2.486 2.51 12.063 9.933 15.279 12.282-2.165-5.488-3.82-8.048-7.177-12.932-1.848-2.775-3.595-5.363-5.56-8.058l.171-.386c9.4 5.44 16.103 22.034 22.457 31.501-4.345-16.974-9.05-29.78-24.736-39.05Zm134.305-68.988c-.819-.377-.43-.346-1.154-.235-13.785 3.673-29.921 12.888-40.926 21.889 11.045-4.341 20.141-6.984 31.966-8.822-4.575 2.768-8.646 3.898-13.671 5.625-13.47 4.627-19.125 5.732-30.319 14.436 5.264-1.208 8.279-1.766 13.524-2.504l14.476-1.536c-12.34 7.195-26.251 1.352-37.741 13.881 17.715-.052 31.75.63 45.385-12.808 4.49-4.425 17.035-24.333 18.46-29.926Zm2.641-4.573c-7.015-1.822-17.991-3.196-25.171-2.017-26.655 3.278-39.71 18.611-44.35 44.319 6.565-12.352 11.575-23.617 22.725-32.257-4.995 7.212-8.45 12.53-12.734 20.231-1.285 2.247-2.806 4.782-3.996 7.045 4.485-3.817 8.4-7.013 12.69-11.06 6.13-5.781 11.355-12.962 18.45-17.262-3.32 4.21-6.824 7.568-10.109 11.586 15.855-11.851 24.28-14.07 42.495-20.585Zm-164.244-40.944c4.473 22.753 14.851 51.94 34.593 65.667 9.293 6.46 19.905 7.054 29.755 11.34a244.145 244.145 0 0 0-3.969-6.87c-8.035-2.426-19.923-5.295-25.619-11.354 5.335 2.502 14.896 4.567 21.028 6.432-.83-1.886-1.62-3.718-2.545-5.562-12.47-3.436-28.118-13.72-37.986-22.166 5.723 2.837 29.163 17.775 32.887 16.711-.039-3.103-28.321-31.966-32.028-37.134l-.45-1.199c3.708.133 29.385 28.756 33.537 33.112-5.937-15.259-7.98-16.005-16.202-28.24 15.784 12.557 16.957 26.349 28.122 42.356-1.14-10.7-4.2-18.414-5.485-27.644 2.48 4.586 5.055 10.438 6.175 15.543 2.04 9.3 2.021 15.295 6.441 23.935.99-21.628-.876-32.785-15.786-50.568-10.657-12.71-36.119-21.63-52.468-24.359Zm166.368-48.981c-18.18.405-32.08 3.202-45.949 16.656-11.98 11.622-10.445 24.909-15.505 38.865 10.58-14.43 6.87-23.086 20.045-37.115-4.505 10.851-7.105 14.973-11.08 27.081 1.91-1.93 7.795-7.748 9.16-9.667 7.065-9.961 12.699-18.931 22.914-26.336-5.52 7.301-12.785 14.651-16.715 22.516 5.2-4.212 10.59-8.474 15.715-12.758 6.275-5.425 12.996-11.389 20.886-14.171-8.385 7.597-17.576 14.986-26.221 22.328-6.96 5.906-12.479 9.951-18.619 16.922 10.789-2.294 17.814-6.381 28.109-9.483-10.505 8.725-26.81 10.551-38.729 20.543 17.124-2.374 30.674-2.022 42.649-17.615 5.645-7.348 9.885-18.42 12.825-27.182.89-2.637 1.916-8.101 2.736-10.06-1.185-.405-1.021-.465-2.221-.524Zm-142.259-28.656c2.292 16.763 6.673 41.223 20.862 51.668 9.338 6.874 15.987 6.748 26.052 10.434.225-.886.37-.875-.184-1.48-9.905-10.767-28.701-17.863-37.175-29.304 10.052 7.122 21.235 12.673 30.134 19.43-5.079-6.362-10.154-12.916-15.161-19.341-3.931-5.046-10.342-11.243-12.805-16.766l.544-.12.782.72a510.935 510.935 0 0 1 22.886 25.526c3.465 4.204 7.269 9.793 10.809 13.725-7.755-15.845-9.31-21.185-21.3-35.697 14.375 9.955 18.941 24.492 25.726 38.956-2.33-16.294-7.051-34.378-20.896-44.462-12.252-8.925-17.828-8.22-30.274-13.289Zm79.97-51.736C371.77 96 358.989 110.652 376.739 145.99c-2.57-10.589-6.269-36.078-2.14-45.706l.581-.329c.089 1.864-.35 3.006-.435 4.779-.61 13.147 2.37 24.172 4.625 36.865.995-3.595 2.054-7.583 2.614-11.009.94-5.704 3.986-39.683 6.351-43.098 1.06 3.271-1.775 29.727-2.41 34.575-.32 2.278-.62 4.113-1.095 6.361 4.75-8.436 9.81-20.666 14.894-30.284-3.815 18.039-13.059 31.702-17.549 48.978-.62 2.38.215 6.011 1.24 8.187l.604-.18c1.205-2.755 1.661-4.789 2.616-7.465 1.815-5.083 7.225-11.291 11.21-14.979-2.835 8.136-7.451 14.948-10.616 23.453 22.775-23.18 26.456-54.383 9.191-81.385-1.33-2.082-2.66-5.616-4.125-7.374ZM206.038 535.995c14.327.36 27.981 5.745 33.974 19.535 2.713 6.24 4.4 14.785 7.632 21.165 1.281 2.53 2.047 7.015 3.711 9.14.024-.083-1.043-11.419-1.412-12.859-2.077-8.09 8.696-25.176 17.765-21.436 5.96 5.52-9.121 26.135-9.775 33.695-.521 6.035-.713 5.225.978 11.26 1.243 3.28 3.324 7.601 2.827 10.941-3.218 2.549-8.107-10.364-9.495-12.835-8.297-3.955-7.298-2.226-16.274-2.196-4.727.01-15.14-1.93-15.021-8.21.661-1.545 1.619-2.22 3.181-2.81 8.526-3.22 15.297.09 22.896 3.415-.802-1.116-4.513-6.385-5.338-6.8-9.056-4.59-16.652-1.85-24.381-11.814-3.059-3.945-14.68-24.191-14.29-28.236 1.262-1.58.903-1.1 3.022-1.955Zm20.725 48.88c.633 4.62 12.258 5.105 15.984 3.495l1.566-.15c-5.837-1.805-10.174-4.15-16.329-4.665l-1.221 1.32Zm36.239-28.505c-8.338 4.31-11.246 12.665-7.54 21.335 1.848-3.785 9.319-17.439 8.275-20.975l-.735-.36Zm-54.607-16.535c.833 2.735 1.739 4.875 2.911 7.44 6.581 14.4 10.121 21.9 26.826 24.704-2.905-5.034-13.856-15.534-18.477-19.594l.309-.675c3.878.835 10.282 7.535 14.06 10.26l-4.484-8.491c2.947 2.96 5.988 6.366 8.885 9.181-5.565-15.35-14.264-20.315-30.03-22.825ZM494.94 90.677c2.235 1.257 1.865 2.898 2.305 5.765 1.685 11.016 5.195 21.609 17.575 24.077 2.1.418 4.85 1.058 6.36 2.717l-.08 1.075c-2.635 2.406-9.48 3.497-12.76 5.578-10.97 6.963-9 19.02-11.46 26.923-2.68-1.304-2.995-4.325-3.595-7.128-1.255-5.878-3-9.32-5.96-14.215-2.985-4.942-15.735-7.759-17.26-10.416 13.885-6.22 20.54-7.901 23.275-25.275.46-2.919.305-6.627 1.6-9.101Zm1.09 46.9c2.795-7.215 6.25-10.287 12.95-14.029-8.705-2.736-9.12-6.845-13.56-12.629-3.345 5.641-5.59 10.105-11.45 13.341.975 2.759 6.54 4.889 8.055 8.15.18.386 3.335 5.014 4.005 5.167Zm30.08 6.732c1.535 1.551 4.475 6.663 5.68 8.695 2.645 1.033 5.225 1.82 7.925 2.676-11.005 6.527-7.28 2.136-11.72 13.567l-.19.483c-3.605-2.148-2.415-6.242-5.515-9.37-1.68-1.697-5.14-1.835-6.255-4.081l6.7-3.671c1.915-3.33 2.235-4.592 3.375-8.299Z"/>
</svg>
