<svg xmlns="http://www.w3.org/2000/svg" width="700" height="700" fill="currentColor" viewBox="0 0 700 700">
  <path d="M491.29 398.426c.629 1.344.665 1.294 1.704 2.392l.743-.779c-.283 1.937.087 10.423.132 12.838l.583 31.322c.206 9.397-.756 19.25-.341 28.734-.196 4.503 1.618 10.345 1.253 14.738-2.853 33.05 1.29 66.664-2.425 99.531-2.501 22.158-31.55 31.318-49.861 34.599 3.172-1.991 10.154-5.938 13.499-7.168 15.928-5.87 29.9-10.828 32.53-30.005 2.894-21.133 1.276-43.112 1.276-64.6-.278-40.537.027-81.074.907-121.602Zm-68.888 87.458c1.923 2.206-.839 9.986-1.509 12.711-2.365 9.324-4.575 18.439-12.349 24.81-5.105 4.188-14.771 7.966-18.536 13.111-3.614 4.936-7.263 16.885-8.685 22.974l.41-.492c8.868-10.856 10.869-21.875 28.441-23.762 7.42-.793 19.975-.738 26.857 2.297-5.697 5.008-19.742 17.992-25.821 19.797-22.413 6.653-25.704-9.511-34.59 21.127l1.13.857c-3.122 1.094-2.174 10.13-5.205 12.232-1.499-3.063.273-8.955.059-12.382l.041-.967c2.93-4.029.511-20.161-4.228-23.119-2.438-1.527-5.574-2.465-8.053-3.819-11.074-6.052-12.469-23.033-12.173-34.107 10.559 3.236 18.425 4.685 24.445 15.249 4.899 8.595 2.462 15.564 2.179 24.546-.082 2.671.838 6.74 1.371 9.497 2.365-9.698 5.538-20.804 9.575-29.905-2.698-7.506-2.698-17.181.775-24.446a26.198 26.198 0 0 1 5.797-7.815c3.19-2.98 26.482-18.754 30.069-18.394Zm-6.95 51.166c-15.54 1.544-18.498 2.934-26.647 16.25 4.662-2.871 11.763-9.11 15.277-10.746l.497.137-1.113 2.229.529.287c4.115-1.299 13.453-4.356 17.513-3.463l.169.51c-1.403.61-6.539 1.322-8.444 1.741-4.352.966-7.078 2.082-11.093 3.946l-.875 1.035c1.636 1.937 6.016 1.331 8.723 2.516-2.324 1.139-11.494.382-15.108.692-1.595 1.267-3.285 2.562-4.807 3.897 4.183.013 11.069 1.007 14.241.747 7.889-.643 22.412-12.979 28.542-18.375-4.407-.465-13.116-1.527-17.404-1.403Zm-64.754-16.289c.191 10.382 1.508 20.65 10.541 27.409 2.01 1.499 4.078 2.966 6.667 2.884l.697-.615c-.123-4.188-8.321-7.921-11.643-9.635 2.761.743 5.513 1.564 8.33 2.038l-.346-.698c-2.406-4.78-7.101-11.06-8.769-15.061l.32-.269c1.312.952 1.335 1.067 2.314 2.278 3.368 4.448 5.342 7.142 7.83 12.119-.191-2.347-.647-5.364-.136-7.575 1.316 1.46 2.697 10.572 3.486 13.02a77.888 77.888 0 0 0 2.41 6.504c1.755-9.457 1.505-14.014-4.146-22.131-5.018-7.209-9.038-9.201-17.555-10.268Zm66.787-30.469c-4.088 2.132-7.834 4.867-11.708 6.967-15.399 8.363-21.36 18.609-18.982 36.432 1.732-2.657 4.754-7.274 5.761-10.272 2.529-7.52 2.849-11.881 7.47-18.74-1.349 4.471-2.999 9.388-3.819 13.946 2.966-3.113 6.034-6.435 9.078-9.448 1.353-1.649 5.437-7.51 6.553-7.961-.127 3.185-9.438 13.379-11.844 16.415 2.091-.716 4.293-1.531 6.426-2.069-8.937 5.92-10.076 6.061-15.363 15.6 11.238-6.718 20.685-10.437 24.099-24.295 1.258-5.118 1.877-10.669 3.185-15.627l-.305-.83-.551-.118Zm-38.624 111.344c4.356-.251 19.505 1.254 16.511 10.081-.802 2.356-7.802 3.65-10.414 4.192-4.334.515-13.047 1.231-16.228-1.982-6.854-6.918 5.309-11.247 10.131-12.291Zm3.299 12.947c16.079-1.403 10.815-11.407-2.502-10.633-3.691.698-9.165 2.275-9.793 6.609 1.531 4.78 8.071 4.293 12.295 4.024Z"/>
  <path d="m221.561 593.519.396-.196c5.709-2.867 12.362-3.769 18.502-5.433 26.063-6.995 53.345-9.201 80.251-9.688 17.355-.315 34.604-1.295 51.935-.005l-.041.966c-33.631-.734-69.553.634-102.924 4.794-15.973 1.987-32.096 7.447-48.119 9.562Zm155.058-15.062c24.833-.287 83.002 4.767 103.022 17.495-13.858-1.212-27.006-7.264-40.956-9.666-12.592-2.169-24.705-4.01-37.447-5.304-7.415-.752-16.279-.62-23.489-1.668l-1.13-.857Zm31.163-196.1c4.047-.1 7.679 1.486 9.288 5.441a7.937 7.937 0 0 1-.278 6.539c-1.409 2.808-3.45 3.756-6.225 4.758-4.32.028-8.495-.988-10.136-5.513a7.96 7.96 0 0 1 .569-6.645c1.627-2.921 3.806-3.619 6.782-4.58Zm2.343 15.065c8.982-4.448 6.17-14.673-2.502-13.662-9.302 4.863-6.463 13.954 2.502 13.662Zm-122.907-45.527c11.445-.787 13.604 10.563 2.986 14.961-11.437.611-14.093-10.828-2.986-14.961Zm2.403 13.476c7.781-4.47 5.508-12.656-2.48-12.163-7.1 4.252-6.173 12.984 2.48 12.163Zm-54.926-28.931c4.044-.429 7.84-.764 10.475 2.949 2.895 4.079-.546 7.81-3.759 9.98-3.527.92-6.907.776-9.335-2.367a6.548 6.548 0 0 1-1.296-4.934c.386-2.724 1.883-4.047 3.915-5.628Zm8.587 5.204a5.056 5.056 0 1 0-9.872 2.185 5.056 5.056 0 0 0 9.872-2.185Zm52.289 166.12a23.209 23.209 0 0 1 2.865-.013c7.781.446 12.178 6.849 4.333 12.263-9.185 2.115-15.226-7.487-7.198-12.25Zm.533 1.226c-2.612 2.388-4.042 5.483-.97 8.372a5.965 5.965 0 0 0 4.038 1.613c.481.005 1.633-.21 2.144-.31 6.679-5.428 1.211-9.689-5.212-9.675Zm-68.966-109.197c1.442.046 3.121.187 4.419.866a6.947 6.947 0 0 1 3.483 4.444c1.023 4.233-2.271 6.307-5.861 6.981-12.108-.055-11.689-10.363-2.041-12.291Zm-1.13 1.213c-5.73 4.817-3.483 9.511 3.737 9.16 6.409-4.243 1.892-9.247-3.737-9.16Zm100.075 206.896c3.856-.05 9.539.122 12.366 2.889.584 1.622.593.853.139 2.379-1.447 1.171-2.536 1.185-4.434 1.568-4.134.251-14.881.551-17.074-3.519l.372-1.029c1.658-1.408 2.236-1.45 4.37-2.156 1.42-.064 2.84-.105 4.261-.132Zm-.743 1.152c-2.233.192-2.956.069-4.778 1.213l-.301.889c2.076 2.62 6.772 2.438 9.81 2.42 1.652-.192 2.722-.133 4.044-1.112l.232-.871c-1.93-2.57-6.112-2.52-9.007-2.539Zm63.374-22.33c15.696-.875 33.733 2.064 49.219 4.995 5.852 1.107 24.774 6.147 29.276 9.365-3.003.159-9.857-2.876-13.334-3.924a108.238 108.238 0 0 0-9.739-2.365c-12.424-2.475-25.571-4.726-38.159-6.084-5.815-.625-11.493-.871-17.263-1.987Zm56.001-86.671c9.939-.77 12.071 6.304 3.982 11.166-8.586.911-11.953-7.119-3.982-11.166Zm.997 1.135c-5.569 3.545-3.682 9.297 2.379 8.645 6.079-4.051 3.773-7.529-2.379-8.645Zm35.365-194.928.848.103-.009.465c-9.589 6.708-35.046 10.162-47.091 11.61-6.571.788-14.569 2.363-21.137 2.413l-.861-.203.182-.427c13.577-2.865 29.336-3.966 43.099-6.805 8.385-1.729 16.743-4.651 24.969-7.156Zm-266.074-1.785c1.431.054 52.363 12.305 52.84 12.539-7.654.906-48.698-6.92-52.84-12.539Zm79.305 107.058c7.504-.333 13.053 6.015 4.711 10.741-7.743 1.043-12.693-6.02-4.711-10.741Zm.606 1.249c-4.678 4.361-2.105 7.733 3.271 7.752 4.921-3.377 1.614-7.793-3.271-7.752Zm-24.63 28.418c7.851-.679 12.638 5.829 4.669 10.592-8.58 1.444-11.68-5.379-4.669-10.592Zm6.468 4.134a4.248 4.248 0 0 0-8.184.56 4.253 4.253 0 0 0 1.398 4.052 4.254 4.254 0 0 0 4.214.774 4.252 4.252 0 0 0 2.572-5.386Zm91.791 27.302c7.32-.921 13.791 3.259 5.56 9.184-7.455 2.98-12.113-3.756-5.56-9.184Zm.055 1.189c-3.441 4.535-1.275 8.651 4.658 6.951 1.431-1.44 1.823-1.623 2.32-3.5-.771-3.195-4.061-3.35-6.978-3.451Zm100.903 84.994c8.021.816 8.216 7.438 1.13 10.733-8.34-.903-9.679-8.349-1.13-10.733Zm-1.559 1.664c-4.397 4.17-2.433 8.272 3.541 7.228 4.963-4.334 2.042-7.401-3.541-7.228Zm-27.794-136.262c7.866.433 12.455 4.629 4.334 10.134-.898.201-2.433.429-3.354.247a5.667 5.667 0 0 1-3.609-2.366 5.056 5.056 0 0 1-.698-4.06c.52-2.105 1.609-2.839 3.327-3.955Zm-.373 1.271c-3.386 4.475-1.195 8.713 4.502 6.927 1.275-1.226 1.764-1.49 2.247-3.208-.616-3.363-3.751-3.55-6.749-3.719Zm6.388-71.769c1.969-.141 4.658-.439 6.627.515 7.647 3.715 6.143 14.324-2.329 15.34-1.395.169-4.038-.077-5.204-1.112 5.332-2.333 5.5 1.317 9.921-5.478.724-4.949-2.953-8.968-7.857-7.373a8.215 8.215 0 0 0-4.885 4.416c-.679 1.536-.72 2.438-.151 3.969.337.893.684 1.782 1.044 2.671l-.378.506c-3.587-1.541-4.535-5.784-2.48-8.873 1.746-2.625 2.926-3.295 5.692-4.581ZM334.096 556.045c7.678.191 10.536 6.106 3.008 9.807-7.512-.675-11.635-7.109-3.008-9.807Zm5.249 4.639c-1.512-3.158-3.681-3.172-6.859-2.844-3.245 4.967 1.347 7.178 5.743 6.289 1.085-1.641 1.171-1.559 1.116-3.445Zm-99.2-88.143c7.419-.501 11.277 5.368 4.279 9.944-7.349.588-10.85-5.464-4.279-9.944Zm5.86 4.078a3.871 3.871 0 0 0-4.482-3.003 3.871 3.871 0 1 0 1.608 7.57 3.869 3.869 0 0 0 2.874-4.567Zm113.934-134.36c6.85-.341 11.394 3.236 4.795 9.099-7.957 1.557-10.632-4.286-4.795-9.099Zm4.891 2.957a3.448 3.448 0 1 0-5.993 3.413 3.448 3.448 0 0 0 5.993-3.413Zm-42.228-.604c7.955.251 8.088 7.319 1.372 9.49-7.653-.251-8.023-6.433-1.372-9.49Zm4.125 3.197a3.435 3.435 0 1 0-6.306 2.723 3.435 3.435 0 0 0 6.306-2.723Zm-38.641 291.292c4.196-.251 22.462 1.741 27.194 2.62 5.222.966 44.91 1.864 45.544 2.443-16.334 1.645-35.307-.397-51.58-2.092-6.114-.633-15.568-1.322-21.158-2.971Zm30.119-54.146c5.319-.328 10.368-.41 15.671.146-2.456.347-5.1.615-7.576.775-15.086.971-29.982 1.964-45.006 3.723-3.846.447-8.482 1.162-12.267.843 5.913-1.545 11.387-1.818 17.418-2.588 10.7-1.367 20.973-2.429 31.76-2.899Zm-110.742 19.1c1.302.556 4.08 5.414 5.385 7.169 2.46 3.304 10.218 10.905 11.705 14.059-1.067-.323-1.782-.601-2.648-1.308-7.114-5.779-13.052-10.541-14.442-19.92Zm236.121 27.677.802.141c-2.639 3.436-37.862 8.614-44.247 9.461l-.92-.232c.651-.438 38.732-8.053 44.365-9.37Zm-86.648-31.92c2.985.019 6.062-.104 7.215 3.186l-.488 1.007c-1.441 1.084-2.375 1.017-4.234 1.276-3.076.091-4.927.57-7.306-1.285-.906-2.666 2.794-3.545 4.813-4.184Zm.761 1.349c-1.404.492-2.297.62-3.172 1.796l.269.702c1.559.615 1.664.533 3.29.588 2.065-.588 1.996-.233 3.295-1.55-.797-1.467-2.128-1.363-3.682-1.536Zm-72.69 4.129c2.992-.113 8.925-.482 10.74 2.207-.19 1.767-.03 1.139-1.46 2.683-3.199.31-8.598.347-10.782-2.265.189-1.709.053-1.116 1.502-2.625Zm7.785 3.436c-1.579-2.721-4.245-2.288-7.093-1.996.915 3.058 4.444 2.219 7.093 1.996Zm39.498-286.931c11.726-.054 23.161-.915 34.85-.913l.091.398c-9.807 1.568-30.36 1.624-40.263 1.319l-2.233-.018-.238-.34c3.23-.668 4.504-.541 7.793-.446Z"/>
  <path d="m326.968 322.599-2.233-.018-.238-.34c3.23-.668 4.504-.541 7.793-.446l-5.322.804Zm-73.87 256.008.633-.054c-1.186 1.048-26.628 5.947-30.381 6.767l-.502-.2-.016-.41c5.27-2.539 24.106-5.656 30.266-6.103Zm152.51-127.895.314.369c-1.946 1.746-4.338 2.821-2.839 6.029 7.05 5.451 5.633-4.129 6.722-5.345l1.486.756c2.333 13.362-19.606 4.876-5.683-1.809Zm5.127 122.8c7.724-.15 23.347 1.181 30.041 4.22-1.868.096-28.578-3.632-30.041-4.22Zm-101.906-1.836c3.122-.397 8.715-.173 11.861.009-6.413 1.007-18.785 1.732-25.487 2.151-4.016.406-6.813.387-10.82.228 5.508-1.076 18.24-1.855 24.446-2.388Zm182.383 35.688c.424.41.241.132.36.944-2.903 5.628-8.358 10.449-13.18 14.373l-.346-.255c.296-1.7 11.261-12.915 13.166-15.062Zm-38.263-27.294c3.828-.656 23.147 5.569 26.241 7.798-4.762-.388-19.56-6.216-25.238-6.982-.748-.1-.415 0-1.003-.816Zm-19.478-250.318.502.064c1.786.213 1.959.085 3.327 1.358.592 1.742.583.904.132 2.6-2.949 3.459-5.82 2.231-8.846-.106.547-1.163.843-1.184 1.891-1.363 1.062 1.19 1.112 1.41 2.571 2.12l1.011-.381c.903-1.361 1.117-1.206 1.185-2.619-1.763.134-1.239.416-2.484-.228l.711-1.445Zm51.799 4.19.519.623c-1.481 5.125-10.482 8.01-15.303 8.196l-.297-.222c.643-.984 5.538-1.751 7.698-2.979 3.614-2.052 4.407-2.85 7.383-5.618ZM297.476 593.555c2.609-.246 6.021-.091 8.719-.05-4.734.862-11.776 1.481-16.756 2.078-3.972.561-9.186.816-13.268 1.131 6.471-1.832 14.539-2.47 21.305-3.159Zm-73.344 24.728c1.966.766 8.803 9.005 10.838 11.22-3.795-.615-9.548-7.661-10.838-11.22ZM485.06 324.376l.469.808c-2.565 4.566-7.756 8.035-12.769 9.288l-.246-.126c.187-.731 1.772-1.269 2.702-1.671 4.093-1.769 6.832-5.043 9.844-8.299ZM457.57 627.58l.169.447c-1.577 2.666-8.395 5.382-11.384 6.111l-.347-.41c.802-.98 9.47-5.036 11.562-6.148Zm28.091-284.046.456.483c-.424 3.193-7.36 5.804-10.131 6.322l-.141-.056-.096-.441c4.753-2.136 5.742-2.969 9.912-6.308ZM222.108 555.165a2.203 2.203 0 1 1 1.628 4.094 2.203 2.203 0 0 1-1.628-4.094Zm56.411-236.873c3.14-.319 16.686.696 19.528 1.868-3.094.257-16.613-.788-19.528-1.868Zm75.642 55.406c1.772.059 1.832-.059 3.372.925 2.662 4.206-1.786 6.193-5.491 6.307-.652-.765-.511-.565-.971-1.422 2.338.101 4.862-.232 6.293-2.178l-.155-.948c-1.025-1.499-1.481-1.659-3.048-2.684Zm12.008-48.105c2.94.001 5.888-.027 8.828.081-.647.487-3.883.836-5.027 1.049-2.37.054-7.998.285-10.113-.478 1.974-.572 4.225-.551 6.312-.652Zm38.582 272.483c2.115-.41 9.835-.301 11.352.994-2.971 1.321-8.563.565-11.352-.994Zm-168.49 27.057c.984.515 8.042 6.348 9.516 7.501-3.945-.56-7.895-3.928-9.516-7.501Zm207.528-25.79c4.152.255 10.632 1.54 14.055 3.91-4.904-1.025-9.438-1.941-14.055-3.91Zm40.209-285.31.164.528c-2.657 2.303-5.386 3.572-8.704 4.613l-.255-.23.104-.535 8.691-4.376Zm-238.29 314.75c2.737.643 5.44 3.322 7.45 5.282-3.3-.478-5.343-2.885-7.45-5.282Zm164.453-460.559a16.45 16.45 0 0 1-9.716 3.139l-.105-.358c2.365-1.673 5.619-1.162 9.128-3.614l.693.833Zm25.302 22.259.807.459c-2.958 5.722-25.849 7.442-31.938 8.113l-.638-.071c1.176-.892 13.353-2.493 16.525-3.456 5.15-1.563 10.122-3.252 15.244-5.045Zm4.895 5.484.496.284.082.738c-5.559 5.404-19.131 6.705-26.578 7.458l-.802-.129c.953-.754 6.708-1.919 8.308-2.263 7.137-1.531 11.863-3.161 18.494-6.088Zm-8.696-12.279.497.645c-2.352 3.875-18.102 5.891-22.741 6.207l-.219-.157c.574-.92 6.221-1.768 7.547-2.075 5.141-1.192 9.971-2.789 14.916-4.62Zm14.948 16.829c.068.497-.041.755-.132 1.28-3.441 4.133-14.005 5.16-19.191 5.733l.032-.545c.907-.689 4.603-1.488 5.97-1.791 4.867-1.076 8.796-2.578 13.321-4.677Zm4.999 5.001.611.126.045.608c-2.356 2.243-5.664 3.081-8.736 3.948l-.519-.128-.078-.404c1.682-1.272 6.503-3.203 8.677-4.15Zm-182.125-20.044c2.542.541 8.25 2.768 10.611 3.991-3.375.455-8.659-.943-10.611-3.991Zm9.705 20.575c2.563-.177 5.238.872 7.632 1.719-3.199.245-4.705-.401-7.632-1.719Zm125.585-15.964c1.057-.022.88-.002 1.932.213-1.057.93-1.276.754-2.802 1.06-1.131.1-1.062.099-2.156-.199 1.039-.935 1.431-.738 3.026-1.074Zm-19.478 97.134c21.529-2.291 31.186 20.711-10.755 14.011 6.23-.631 10.623-.178 16.862-.181 2.511-.144 11.603-1.414 9.215-6.114-4.074-8.038-16.725-5.748-23.502-2.757-3.55 1.569-4.343 2.66-7.114 5.539l-.674-.045c-.57-1.443-.356-1.679-.028-3.206 2.994-4.197 11.115-6.352 15.996-7.247Zm12.273-19.44c14.036-1.498 65.465 5.458 78.016 12.066 1.996 1.05 4.794 2.874 5.346 5.251.364 1.583-.205 2.598-.893 3.96l-.807.059a588.44 588.44 0 0 0-.096-.545c-.045-.244-.1-.486-.146-.729-.141-.749-.282-1.333-.665-2.004-5.715-10.076-48.686-14.825-60.662-16.013-6.471-.642-13.863-.174-20.093-2.045Zm-66.186 6.663c3.395-.323 8.645-.917 10.136 3.09l-.534 1.13c-1.59 1.31-2.72 1.409-4.75 1.921-2.799.551-10.148 1.879-10.635-2.403 1.11-2.272 3.467-2.846 5.783-3.738Zm8.139 3.165c-1.014-2.268-5.727-1.91-7.782-1.79-1.579.692-2.742.999-3.801 2.335l.088.866c2.575 1.342 5.268.828 8.094.3 2.036-.665 2.165-.355 3.401-1.711Zm-42.586-9.906c2.229-.187 3.192-.386 5.383.071-.065.051-42.734 6.085-47.376 6.895-2.265.497-5.254.727-7.608.985 6.742-3.152 40.978-7.369 49.601-7.951Zm-32.213 11.311c3.267-.192 7.574-.325 9.139 3.133-.501 6.249-13.139 5.287-15.162 2.855l.28-.569c2.074-.458 4.988.901 9.398.521 1.487-.291 1.473-.184 2.611-1.139.038-1.761.241-.95-.704-2.503-4.437-2.181-12.676.371-17.923 1.072 2.346-1.562 9.348-2.782 12.361-3.37Z"/>
  <path d="M443.101 279.088c5.451-.501 42.31 4.706 25.216 13.969l-1.491.127c1.8-2.391 3.359-2.115 3.013-5.489-3.382-5.213-20.572-6.556-26.738-8.607Zm-101.313 14.946c4.644-.397 10.659-.337 13.298 4.025l-.255.519-.916-.093-1.327-1.825c-3.864-1.692-14.939-2.445-16.94 2.151l.912 1.02 16.279.076c-3.874 1.704-16.654 2.906-19.131-1.43l.304-1.062c2.077-2.013 5.007-2.854 7.776-3.381Zm17.081-24.148c3.623-.219 7.514-.639 10.422 1.584.652 1.46.606.733.164 2.253-1.303.849-.633.741-2.046.488-.037-1.112.05-1.113-.511-2.047-3.472-1.694-12.336-2.361-12.199 3.254 3.978 2.316 4.958 1.092 9.488 1.448-3.609 2.199-8.891 2.186-11.015-1.993-.073-3.937 2.538-4.097 5.697-4.987Zm49.939 9.167c3.905-.268 12.528-1.007 14.793 2.831-.652 4.019-9.571 2.995-12.633 2.898a27.91 27.91 0 0 1-3.368-.66l-.037-.385c3.578-.521 10.423-.093 13.121-1.581-1.527-1.873-8.422-2.264-11.398-2.984l-.478-.119Zm-97.426 14.614c.45.003.135-.025.893.317-3.381 2.379-20.897 2.118-25.209 1.875l-1.227-.157-.209-.401c2.209-.68 10.404-.343 13.235-.563 4.105-.319 8.387-.687 12.517-1.071Zm-84.72-3.936c.46.122 2.175.748 2.597.965 4.759 2.451 15.525 3.578 19.753 5.867-5.484.321-18.749-2.416-22.35-6.832Zm217.027 4.322 1.554-.258.506.383-.328.541c-4.157 2.299-13.622 2.367-18.508 2.415-.273-.022-1.225-.256-1.526-.323 1.677-.672 14.054-1.767 18.302-2.758Zm-151.36 5.503c2.342-.35 22.205-.378 22.975.229-4.93 1.401-18.035 1.383-22.975-.229Zm-56.503-23.302c1.011-.023.591-.183 1.297.371-1.179 1.164-7.08 3.37-8.989 4.155-.731-.05-.585-.083-1.296-.398l.299-.752c2.927-2.173 5.212-2.799 8.689-3.376Zm56.849-.191.755.162c-.056 1.054-1.906.866-3.411 2.859 1.004 1.659 1.7.106 3.71 2.436-2.29.194-3.363.427-5.268-.665-1.4-2.838 2.092-3.856 4.214-4.792Zm2.783-.557c2.729-.253 4.143-.447 6.918-.154l.426.576c-2.354.227-4.612.577-6.944.283l-.4-.705Zm149.375-150.753c8.157.447 8.841 11.529 4.949 16.73-3.61 4.809-10.678 7.069-16.315 8.694-9.22 2.66-19.273 3.303-28.688 5.282-1.564.328-1.286.24-2.402-.607 13.07-4.049 32.352-4.325 43.932-12.744 5.291-3.846 3.254-11.283-1.722-14.855l-1.381 1.382-.688-.155-.392-.873c.556-1.304 1.586-1.932 2.707-2.854Z"/>
  <path d="M438.202 139.999h.278l.209.303c-14.032 8.729-81.484 10.476-100.807 9.966l-.544-.368c.431-.6 1.231-.363 2.385-.425 31.765-1.715 67.612-.71 98.479-9.476Zm-190.68-8.014c.365.963.654 4.068.849 5.326.555 3.578 1.188 5.473 2.538 8.788.075-2.587-.163-4.288.022-7.403l-.029 1.29.113-1.34c1.171 1.045 1.689 3.089 2.362 4.712l3.107 5.138-3.996-1.801c-6.228-2.729-8.173-8.726-4.966-14.71Zm22.769 11.677c2.929.046 18.201 2.562 20.796 3.813-4.003.301-17.106-1.636-20.796-3.813Zm-14.287-1.631c1.471 1.957 1.778 3.183 3.734 4.85 1.843 1.569 3.519 1.769 5.135 3.522-5.242-.526-8.867-2.694-8.869-8.372Zm46.76 9.013c3.444-.635 4.979-.13 8.324.643-3.264.342-5.233.447-8.324-.643Zm70.51 5.962c2.357-.346 3.788-.573 5.92.44-2.328.327-3.841.609-5.92-.44Zm57.695-62.278.875 1.047c-1.85 1.23-6.535 4.55-8.713 3.506.893-.84 6.116-3.498 7.838-4.553Zm-49.811 11.477c7.998-.831 21.032-3.154 28.241-3.47-8.198 3.463-19.61 5.336-28.437 4.577l.196-1.107Zm-93.431 7.967c2.026.037 2.075.347 2.916 1.951-.165 2.048.174 1.63-.911 2.975-1.959-.738-3.205-1.002-4.258-2.65.536-1.488.636-1.16 2.253-2.276Zm124.234.442c1.24.622.797.339 1.75 1.454l-.096 1.023c-1.312 1.585-2.584 2.01-4.429 2.922-1.313-.154-.821.153-1.655-.655.574-1.551 3.09-3.521 4.43-4.744Zm-26.815 8.301c.847.392.588.297 1.271 1.06l-.205.904c-1.431 1.427-3.03 1.98-4.881 2.843-.214-.074-.902-.525-1.13-.665l.018-.775c1.09-1.331 3.364-2.456 4.927-3.367Zm38.481-14.057c1.076-.132 1.254-.073 2.347.048l.365.599c-1.212 1.55-2.671 2.162-4.402 3.147-.889.239-.889.151-1.842.137l-.209-.641c1.071-1.651 2.082-2.139 3.741-3.29Zm-3.349-4.033.839.414-.151.842c-1.544 1.385-1.718 1.365-3.773 1.956-1.071-.657-.72-.188-1.235-1.27.848-1.091 2.885-1.493 4.32-1.942Zm-13.586 3.979.935.129.168.614c-1.007 1.168-2 1.547-3.363 2.268-1.076-.169-.602.046-1.431-.629.798-1.163 2.315-1.683 3.691-2.382Zm-4.269 16.235c.195.204.072.017.291.902-1.271 1.202-2.502 1.368-4.197 1.866-.146-.242-.324-.807-.433-1.099.793-.965 2.99-1.314 4.339-1.669Zm-123.921-23.457c2.352.542 4.655.839 6.594 2.184-3.043.416-4.41-.142-6.594-2.184Z"/>
  <path d="m381.158 106.205-.196 1.107c-1.399.123-2.893.467-4.06-.144 1.153-.879 2.734-.812 4.256-.963Z"/>
  <path d="M337.019 69.08c25.956-1.865 67.044 2.415 92.779 8.57 5.109 1.22 6.281 2.561 8.742 7.019-.164 9.214-1.792 16.148-4.08 24.925 20.773 4.316 30.831 11.848 25.927 34.532-1.513 6.979-4.539 8.945-10.057 12.5-.757 25.113.865 27.092 22.699 40.416 43.754 26.698 31.992 85.995 34.48 129.17.365 6.394-.464 13.433-.378 19.891l1.764 230.112c-.032 19.318-1.864 34.539-16.393 48.279-8.239 8.153-15.681 12.409-26.586 15.914-33.67 10.819-68.729 15.837-104.18 15.317-5.838-.948-16.539.438-23.173-.036-20.418-1.449-41.139-.679-61.383-4.412-39.992-7.378-81.895-14.624-84.603-64.307-1.49-27.33-.635-53.782-.285-81.08l1.378-121.592c.359-21.575-1.764-43.476-.883-64.93 1.839-44.805-8.396-99.161 38.672-125.053 18.585-10.224 19.343-17.388 17.74-36.717-4.882-3.659-9.688-6.947-10.451-13.311-3.038-25.331 4.907-31.241 26.603-35.963-1.421-6.513-3.748-15.409-4.194-21.878 1.198-2.246 2.328-3.912 3.731-6.01 21.358-9.718 48.571-9.962 72.131-11.356Zm108.708 89.654a439.271 439.271 0 0 1-8.222 2.938c.164 5.025.046 10.165-.155 15.272-.264 6.812 1.454 11.172 6.622 15.796 5.446 4.873 11.653 8.81 17.454 13.249 23.343 16.16 30.097 32.18 31.254 60.438 1.203 29.364.943 59.768.857 89.247-.046 14.095-1.071 28.779.223 42.888.082.879.069.438-.022 1.477l-.743.779c-1.039-1.098-1.076-1.049-1.704-2.392l-.889-107.84c-31.897 29.389-252.485 30.392-281.7-.72.049 3.063.142 6.081.266 9.15.407 10.11-.115 20.143-.304 30.308-.431 23.124.593 46.292-.347 69.384-.082 2.005-.215 4.005-.214 6.011 1.357 48.211.541 96.528.642 144.726.024 11.954.191 25.543 2.413 36.877 2.396 12.223 11.878 19.588 22.834 23.512 3.885 1.39 8.165 4.867 12.284 6.125 44.496 13.271 88.85 15.275 134.978 12.833a366.38 366.38 0 0 0 17.259-1.331c3.114-.329 28.483-3.801 29.659-3.5-1.599 1.604-9.867 2.42-12.565 2.953-44.165 8.713-89.295 6.886-133.54-.041-9.079-1.422-17.777-4.179-26.601-6.635-3.344-.93-7.165-.743-10.544-1.714-14.111-5.482-35.166-12.492-37.749-29.659-5.52-36.686 1.153-73.304-1.729-110.227-.338-4.297-.422-9.424-.356-13.717l1.035-66.249c.188-10.646.934-21.872.673-32.44-.445-18.063.294-35.878.033-53.958-.306-21.196-1.202-42.695 1.88-63.725 2.409-15.47 5.979-22.787 16.939-34.296 9.739-10.228 36.42-21.744 37.43-36.445.268-3.912-1.65-8.681-.481-15.641l-8.523-2.908c.117 9.825 1.525 21.257-6.583 28.053-17.242 14.451-36.431 21.74-44.207 45.246-7.598 22.968-6.356 48.761-6.433 72.713.073 10.614-.358 21.999-.165 32.308.396 21.07-1.364 42.216-1.601 63.093-.373 44.274-.267 88.548.316 132.822.307 21.665-2.098 44.571 2.431 66.154 1.902 9.069 5.651 16.233 12.306 22.737a54.321 54.321 0 0 0 13.658 9.597c28.793 14.055 91.097 20.576 123.147 20.471 21.61-.073 47.979-1.026 69.457-4.115 13.171-2.648 26.816-5.633 39.59-9.721 7.022-2.247 14.205-3.791 20.544-7.159 30.884-16.402 28.916-46.407 28.379-76.872-.096-5.606.391-11.663.436-17.382a1800.502 1800.502 0 0 0-.309-32.539c-.356-34.18.542-68.729-.173-102.941l-1.659-91.223c-.269-21.24.998-44.759-2.867-65.518-1.795-9.641-9.711-27.366-16.907-34.191-2.803-2.657-12.209-10.029-15.481-12.094-10.664-6.719-21.98-12.646-22.236-27.123-.073-4.142.129-8.682.01-12.841ZM353.373 261.47c-10.952-.025-22.168-.639-33.098-.131a587.105 587.105 0 0 0-44.73 2.996c-10.663 1.172-105.173 14.679-48.67 31.926 24.886 7.597 65.305 11.451 91.418 12.625 20.834.816 41.697.837 62.533.061 20.093-.93 96.012-6.276 108.358-20.306.843-.958 1.577-2.242 1.559-3.558-.037-2.479-2.767-4.817-4.585-6.143-3.163-2.299-8.267-3.769-11.99-5.017-18.886-6.329-43.391-9.755-63.342-11.18-5.232-.374-10.468-.312-15.699-.558-5.97-.28-11.922-.829-17.897-.927-7.943-.13-15.91.232-23.857.212Zm82.245-99.591c-5.615 1.517-9.598 2.437-15.322 3.578-.104 2.643-.214 8.284-2.771 9.964-14.998 9.85-44.615 8.115-62.32 9.228-1.336.084-4.462-.486-5.36-.683l-.037-.524c2.124-.976 7.51-1.148 10.172-1.452 15.13-1.73 41.681-1.114 55.157-8.591 1.481-3.21 1.919-4.802 2.871-8.236-1.394 1.347-3.331 3.518-5.036 4.157-.496-.96-.364-.633-.569-1.696-1.108.182-1.217.183-2.242.6l-.693-.833c-32.429 3.949-65.67 2.145-98.263 1.37-3.319-.078-23.129-1.497-23.777-1.212.132.584.267 1.127.272 1.727-2.692-1.331-5.152-4.266-8.009-4.033l-.681.459c.537 2.233 2.807 6.516 4.062 8.499l.546.237c15.326 6.525 32.466 5.481 48.651 7.647 2.503.335 7.249.038 8.994 1.771-.419.948-.528.96-1.48 1.296-5.851 2.065-49.125-3.51-55.788-7.069-2.344-1.252-4.045-3.019-5.767-4.993-.671-3.091-.92-4.865-1.234-8.02-3.401-.113-11.591-2.576-13.364-1.231-1.341 4.896 2.777 10.953 1.636 16.207-.718 3.308-2.359 6.409-3.771 9.49 6.012 3.21 11.058 5.385 17.638 7.287 8.046 2.326 15.849 3.891 24.128 5.008.88.119 1.766.48 2.348 1.176-3.379 1.731-31.177-5.245-35.917-6.946-4.43-1.589-6.144-2.13-9.618-5.448-21.218 16.825-41.211 24.432-46.986 53.638-2.807 14.201-5.364 20.057-4.311 35.602a53.573 53.573 0 0 1 14.052-7.943c5.008-1.931 13.35-4.056 18.704-5.074 47.056-8.952 95.469-9.562 143.212-7.889 29.157 1.021 58.356 3.436 86.702 11.061 7.67 2.063 12.966 4.96 19.473 9.393-.337-22.873-.952-45.551-18.766-62.341-10.742-10.126-26.861-16.39-35.465-28.463-3.946-5.536.109-19.056-1.071-26.718Zm-169.96-50.35c-1.318-.656-.597-.455-2.311-.27-6.81 1.952-15.149 5.249-18.794 11.767-3.059 5.471-2.927 16.323-.99 22.184 1.441 4.359 4.545 6.486 8.518 8.37 30.041 14.247 112.106 14.222 146.554 10.645 14.342-1.488 29.732-3.79 43.272-8.765 4.32-1.588 12.003-4.717 13.89-9.222 2.288-5.468 2.064-16.825-.374-22.121-2.52-5.465-7.441-8.42-12.923-10.272a37.119 37.119 0 0 0-1.701-.524c-2.073-.622-3.764-1.391-5.829-.998-1.367 1.003-2.073 1.748-2.164 3.519-.606 11.79-6.125 11.661-15.736 15.875 4.07-.51 15.226-3.992 17.09-3.79l.574.664c-1.832 2.619-18.672 6.069-22.276 6.76-8.153 1.565-17.063 1.994-25.348 2.664a475.47 475.47 0 0 1-108.618-3.281c-8.129-1.165-19.313-2.792-26.553-6.798-4.561-2.523-1.85-8.89 2.14-9.378l.428.386c-.505 1.104-1.754 3.465-.83 4.514 5.528 6.265 17.248 5.172 25.149 7.484-3.181-1.684-9.389-4.311-10.463-7.736-1.221-3.893-.955-7.78-2.705-11.677Zm167.116-21.485c-3.523 1.053-3.696 3.47-9.196 4.616a350.258 350.258 0 0 1-43.641 6.233c-8.144.579-17.145-.374-24.951.284-12.391 1.044-20.765.808-33.217-.498-17.993-1.885-36.815-.213-53.774-7.923l-.673-.435-.461.36c.22 6.949 3.703 16.833 6.263 23.369 1.86 4.75-2.181 9.491 3.919 12.174 12.77 5.618 60.882 8.129 76.461 7.99 15.126-.136 54.675-2.722 68.351-8.405 1.768-.734 3.486-1.471 4.279-3.354.966-2.308.975-5.428 1.226-7.915-1.139 1.953-2.069 3.835-3.655 5.427l-.725.085-.164-.185c.342-3.554 3.742-2.63 5.2-7.549l.26-.848c1.062-3.583 2.001-8.47 2.803-12.201-1.317.907-2.388 1.792-3.911 2.266 2.384-2.319 5.269-4.15 4.676-7.76l-.875-1.047c1.317-1.556 1.55-1.975 2.051-3.952l-.246-.732Zm-48.672-15.689c-12.122-.876-24.518-1.979-36.695-1.178-17.37.538-35.798 1.474-53.228 2.38-6.337.329-21.687 5.301-27.045 9.051-.989.836-.943 1.563-.966 2.596 3.832 6.109 30.894 8.502 38.202 9.249 9.399.961 18.504 3.506 28.076 2.5 6.6-.196 11.169.465 18.169-.338 7.25-.67 15.171-1.345 22.435-1.11 18.603.606 36.851-3.737 54.843-7.936 2.62-.611 5.811-2.668 5.446-5.722-3.039-4.154-13.932-4.424-18.762-5.576-10.067-2.4-20.157-3.17-30.475-3.916Z"/>
  <path d="M353.013 77.218c12.099-.735 40.591 1.349 52.431 3.593l-.296.184c-10.026.435-23.151-1.19-33.359-1.726-4.175-.22-16.32-.817-19.647-1.524l.871-.527Zm-50.765 1.34c2.171-.202 4.985-.066 7.212-.03-7.679 2.595-14.732 1.61-22.682 3.882-1.864.544-2.675.894-4.584.91l.256-.457c6.268-2.584 13.102-3.53 19.798-4.305Zm118.541 5.652c1.64.153 3.112.504 4.042 1.876l-.424.918c-1.54 1.376-2.926 1.545-4.931 2.097-1.112-.238-.615-.036-1.504-.562 1.837-.845 2.894-.343 4.457-1.706l.046-.948-1.686-1.674Zm96.199 9.012c2.306 2.07 2.913 17.343 6.941 22.702 4.498 5.981 12.719 6.478 16.06 9.879-1.094 2.703-8.9 2.292-13.859 7.696-6.457 7.044-4.174 13.203-8.175 18.641-2.534-.77-2.038-1.913-2.945-4.772-2.479-7.841-4.799-16.548-13.918-18.722-1.417-.337-4.972-1.354-6.056-2.263l.068-.857c2.388-1.615 6.617-2.341 10.112-4.494 10.45-6.435 9.047-16.99 11.772-27.81Zm.192 19.623c-3.108 7.199-4.612 9.066-11.817 12.644 3.723 2.124 3.96 2.418 7.041 5.605 2.297 2.376 3.505 7.398 4.94 8.071 2.343-6.483 3.555-9.33 10.19-12.477a67.81 67.81 0 0 1 2.156-.988c-10.582-4.563-9.644-10.85-12.51-12.855Zm28.128 30.539c.528.509 3.281 5.457 3.946 6.53l6.572 2.742c-7.169 3.048-6.932 1.561-10.3 9.126-1.463-1.333-2.78-4.11-3.75-5.921-2.069-1.438-4.339-2.337-6.64-3.38 2.584-.959 4.352-1.757 6.827-2.923 1.016-1.54 2.442-4.455 3.345-6.174Z"/>
</svg>
