<svg xmlns="http://www.w3.org/2000/svg" width="700" height="700" fill="currentColor" viewBox="0 0 700 700">
  <path d="M331.826 151.567c28.786-.725 59.581 10.723 78.435 32.973 2.154 2.541 4.617 5.42 6.459 8.119.909 1.337 2.851 7.37 3.949 7.838 2.707 1.158 11.164 1.043 14.176 1.246a148.326 148.326 0 0 1 36.097 6.641c15.129 4.866 29.301 12.502 41.74 22.377 4.629 3.677 8.81 7.093 14.288 9.471 13.107-3.637 20.564-4.794 33.891-5.548 1.045 1.079 2.022 1.844 3.183 2.799l-2.322 3.626c-7.253-.285-23.027.045-28.437 5.486-10.308 10.368-14.224 29.661-16.238 43.61-4.846 33.568-6.832 65.367-30.311 92.28-2.895 3.316-7.669 7.989-10.16 11.589.064 7.469-1.017 12.859-1.962 20.235-2.391 18.71-7.116 39.742-15.041 56.95-4.934 10.708-13.263 24.504-19.07 35.036-4.689 8.509-14.965 28.572-20.671 35.728 6.123-5.085 11.745-11.529 18.473-16.074 3.648-2.447 9.394-5.955 13.071-7.865 14.204-7.38 26.089-9.799 21.488-28.901-1.341-5.558 3.801-15.414 7.849-19.354 3.024-2.943 6.576-7.256 9.691-10.808 5.855 16.058 9.783 30.619-6.88 42.272-1.698 1.189-5.762 4.197-7.056 5.726l.637.113c4.842-1.698 7.212-3.893 11.101-6.384 8.57-5.202 10.231-9.683 13.175-18.765 4.821-14.893 17.251-22.898 32.325-24.793 2.547-.316 8.213-1.581 10.283-.108.049.377.137.845.024 1.202-4.449 14.5-10.175 29.65-25.929 34.816-9.042 2.963-15.826 1.986-23.635 8.169-3.192 2.527-7.669 4.289-10.7 6.387-3.404 2.351-8.79 2.972-11.257 4.673l.072.433c9.543 2.879 16.991-10.064 29.854-8.594 9.11 1.037 21.12 11.814 26.278 18.493-.116 4.205-16.006 7.221-19.626 7.749-5.194 1.53-17.116-1.109-21.381-4.425-14.24-11.077-13.395-14.933-30.503-6.571-35.64 17.416-58.258 50.477-67.385 88.389-2.242 9.374-1.473 18.985-3.271 28.584l-.565.341-.885-.469c-7.228-9.879.865-40.442 6.163-51.106 2.258-4.545 3.976-10.16 6.271-14.705 11.786-23.335 28.328-44.223 37.551-68.823 6.936-18.781 9.915-40.041 10.784-59.96.309-7.044-1.646-15.83-2.186-22.898-4.353 2.979-12.402 6.175-17.492 8.489-29.121 13.231-61.214 16.415-92.6 20.231-8.465.969-17.267 1.15-25.695 2.259-30.755 4.049-59.219 16.555-89.163 23.583-6.382 1.498-10.205 2.563-15.581-1.061 6.056-2.824 12.657-9.127 16.995-13.984 24.097-26.979 30.503-58.047 37.574-92.378.82-3.981 4.669-17.242 4.162-21.13-1.865-3.296-7.697-8.361-9.974-10.795-37.986-40.598-34.436-105.613 2.013-145.891 19.908-21.999 48.467-34.737 77.924-36.523Zm160.941 125.558c.456-7.925 4.601-19.654 11-24.745-2.679-.372-7.957 2.614-9.695 4.606-14.252 16.443-10.48 43.06-11.369 63.229-.66 14.986.313 40.782-11.212 52.034 2.575-5.426 4.397-9.782 5.742-15.66 6.548-28.639-6.9-76.99 12.783-100.291-.813.295-4.137 1.555-4.898 1.954-7.332 3.861-15.694 16.885-19.458 24.171-2.507 5.812-4.441 12.09-6.167 18.172-1.141 4.017-.901 8.187-2.471 12.187l-.036-.738c-.965-21.1 10.284-38.213 23.871-52.976-6.223 2.89-9.038 1.775-15.009 7.449-10.44 9.923-17.424 32.31-17.48 46.556-3.66-12.019 4.541-33.019 11.958-42.795 1.69-2.231 4.157-4.336 6.295-6.166-5.182 2.013-12.542 6.912-15.678 7.672-26.807 31.364-16.286 75.077-24.135 112.319-2.439 11.573-6.64 21.248-16.888 27.543 23.083-27.903 14.265-67.085 19.831-100.467 2.767-16.58 5.382-25.487 16.915-37.779-9.334 4.529-26.85 13.213-34.579 19.425-14.004 11.256-20.191 34.965-21.076 52.271-.265 5.107-.241 13.827-.765 18.403-.793-.628-1.162-2.317-1.238-3.302-1.81-23.818 2.832-45.711 17.04-64.886-.561.298-1.101.623-1.63.973-1.606 1.054-5.058 4.289-6.628 5.732-25.349 23.352-15.593 60.749-21.628 90.753-.781 3.88-7.321 23.663-12.422 22.454.368-1.374 3.111-3.945 4.052-5.879 6.532-13.444 8.29-26.282 7.925-41.223-.617-25.186-.388-37.851 11.858-60.149-5.579 5.966-11.001 8.777-13.94 16.957-2.375 6.608-4.698 12.967-6.596 19.762-.693 2.474-1.85 9.568-2.827 11.325l-.493-.274c.165-8.733 3.516-18.998 6.664-27.169.561-1.461 3.572-7.79 3.448-8.44-4.669 1.271-13.235 16.723-14.577 21.416-1.101 3.85-1.89 8.717-3.396 12.522l-.276-.293c-.244-9.954 3.436-17.039 8.194-25.332-10.036 10.046-13.176 15.216-16.015 30.024-.424 2.223-.697 7.24-1.746 9.054-2.427-4.484 1.618-22.401 5.142-26.653.693-.836 1.994-2.599 1.814-3.646-3.864 3.812-14.533 17.291-16.074 21.656-8.467 23.985-1.641 56.374-23.046 75.339 11.103-18.729 13.252-26.963 15.038-48.635.803-9.739.453-15.903 4.123-25.331-3.507 2.873-20.104 24.81-22.971 29.271a63.497 63.497 0 0 0-5.074 9.651c-6.764 16.367-7.84 36.526-26.951 44.755 1.93-1.682 3.948-3.127 5.835-4.885 8.794-8.19 12.621-20.299 15.619-31.592.471-1.774 2.323-6.76 2.367-8.302-4.101 3.192-5.498 6.924-8.731 10.256-8.932 9.206-25.431 25.857-37.58 30.098-.01.168 14.796-11.789 16.204-12.838 22.03-16.399 34.668-44.908 53.455-63.012-4.822 1.95-11.553 3.908-16.618 5.342-14.191 4.012-20.076 8.918-31.293 17.688.413-1.294 4.039-5.022 5.139-5.987 5.779-5.058 14.784-11.329 22.161-13.708 8.996-2.711 17.228-4.237 24.846-10.118 4.591-3.544 6.882-6.692 10.654-10.979 6.818-7.751 13.878-15.798 22.052-22.149.829-.647.504-.088 1.173-1.14-1.654-.503-24.191.919-28.056.622-.972-.074-11.928 1.171-13.772 1.396-3.268.398-9.603 2.663-12.912 3.613-5.701 1.636-12.45 6.848-17.547 9.052 1.503-2.721 6.617-5.346 9.085-6.913 8.739-5.55 22.512-9.879 32.836-10.394 14.22-.709 24.872.618 38.691-5.489 5.851-2.586 13.308-8.843 18.694-12.686 10.776-7.691 25.497-19.003 37.29-24.53-20.575 3.364-45.564-6.684-66.792-4.659-9.315.889-17.3 1.079-26.223 4.694-2.657 1.076-7.149 3.355-9.632 3.856l-.478-.332c1.706-1.401 5.888-3.226 7.779-4.194 30.849-15.666 65.088-3.07 97.253-1.064 2.374.147 10.159-3.867 12.878-5.091 11.534-5.185 22.71-13.045 35.373-15.171l.444-.071-.484-.39c-13.135-.476-19.034-4.612-31.144-8.824-15.345-5.335-31.332-10.06-47.518-11.861-2.054-.228-13.52-.413-14.072-.582 2.234-2.159 8.437-1.298 11.297-1.183 27.703 1.111 53.629 13.106 80.147 19.467 4.497 1.08 20.924-4.24 26.575-4.431-.769-.976-14.341-7.866-16.459-9.29-4.774-3.208-9.815-6.667-14.777-9.606-5.014-2.972-12.847-5.765-17.444-8.372l-.12-.459c2.302.101 3.724 1.065 5.887 1.734 12.566 3.881 23.206 11.829 34.167 18.79 2.406 1.527 7.26 5.147 9.811 5.864 1.546-.181 1.333.066 2.447-.724l-.265-.075.533-.658.649-.229.42-.871 1.065-1.019 2.728.908c1.858-.412 4.617-.701 5.634-2.085-1.033-3.35-21.961-16.54-25.693-18.507a135.9 135.9 0 0 0-105.561-9.142c-43.97 13.906-79.583 45.842-100.708 86.526-8.233 15.857-17.501 43.829-21.695 61.275-5.628 23.416-8.144 45.91-19.039 68.191-5.7 11.653-12.091 20.572-21.031 30.078-1.837 1.955-11.422 9.051-11.652 10.633 5.021.236 16.192-4.546 21.416-6.252l22.834-7.276a426.954 426.954 0 0 1 27.113-7.649c22.228-5.458 50.968-7.724 73.629-10.043 66.171-6.776 137.493-41.612 149.31-113.707 2.507-15.277 3.668-31.445 7.124-46.631 3.516-14.934 4.393-21.423 14.393-33.115-.753-.123-14.557 3.861-16.447 3.828-1.269-.023-6.339 7.586-8.241 9.514l.232-.681c.989-2.852 1.193-3.199 2.903-5.631l.301-.433c.06-.085.12-.17.184-.256l-.533-.703.837-.142-.224-.222c-1.426.452-1.662.609-2.972 1.377-3.155 6.341-6.347 10.75-8.141 18.264-.42 1.761-1.453 5.477-2.859 6.481Zm36.534 190.593c-1.122 1.835-1.502 2.611-3.036 4.165-8.361 8.49-15.253 14.397-24.492 22.021 14.421-4.28 23.531-3.287 32.177-19.097 2.647-4.842 4.541-10.416 7.3-15.118l-5.794.157c-9.643 1.653-20.223 5.177-26.126 13.483-4.185 5.891-4.906 10.392-7.749 16.843l.352.068.429-.484c2.026-2.255 2.323-2.107 4.713-3.588 7.933-4.926 14.381-13.708 22.226-18.45Zm-49.589 47.915c1.213.881 3.576 2.499 4.573 3.472 12.799 11.317 25.874 10.268 40.579 3.3-8.766-5.823-14.825-16.371-27.107-15.334-4.137.966-9.119 3.032-12.719 5.303 7.06 1.537 21.445 4.373 27.175 8.361l-.24.196c-10.608-2.963-21.244-5.081-32.261-5.298Zm-201.52-212.267c24.537-50.092 69.461-88.11 123.895-99.358 2.707-.56 15.182-2.123 16.087-2.84-.361-2.038-2.731-4.234-4.033-5.841-17.188-21.208-41.728-35.073-68.943-37.986-3.736-.4-8.94-1.088-12.666-.585-62.631 4.164-104.928 51.516-102.081 114.753.85 18.886 8.779 38.706 20.494 53.37 4.501 5.513 8.894 9.936 12.783 15.832.885-.392.961-1.106 1.402-2.305l13.062-35.04ZM483.38 481.927c.617-2.215.925-3.797 2.203-5.747l.6-.292c-.06 1.606-.861 3.444-1.237 5.178-1.173 5.378-1.546 13.703-3.496 18.613 1.342-.152 6.215-5.418 7.12-6.64 5.506-7.408 4.537-20.271 1.246-28.34l-.657-.384c-5.663 8.778-16.439 15.005-13.303 27.944.444 1.834.841 4.18.913 6.071.02 1.693-1.17 3.828-.625 5.149 4.946-2.514 5.967-16.138 7.236-21.552Zm-11.789-83.92c-6.812 6.547-15.366 12.742-23.195 18.157l-.004.64c-.008 7.1 2.151 15.682 2.295 22.778.312 15.134-1.994 32.077-6.307 46.606-.553 1.87-1.606 6.307-2.287 7.825l-.032.428c1.269-1.378 4.365-8.666 5.466-10.68 11.77-21.473 19.382-45.488 22.438-69.764.4-3.179 2.078-12.49 2.062-15.349l-.436-.641Z"/>
  <path d="M385.409 222.002c3.003-.627 8.958.105 12.061.339 18.966 1.433 37.587 8.117 54.194 17.169.649.353 2.443 1.704 2.571 2.358l-1.077-.456c-4.053-1.256-9.295-3.784-13.415-5.503-9.167-3.825-18.97-7.171-28.625-9.51-5.37-1.301-12.434-1.929-17.969-2.685-2.138-.293-9.795-.004-11-.716.933-.93 1.898-.842 3.26-.996Zm32 24.802c6.488-.774 27.127 6.181 34.748 7.762 1.682.349 11.517 2.406 13.307 2.862l-.128.443-1.594.84c-2.903-.191-2.102.281-4.665 1.271.144-.416.284-.833.428-1.249-14.092-3.896-28.316-6.85-42.096-11.929Zm51.195-11.302c4.164 1.34 17.9 8.651 20.719 11.681-3.003-.308-18.677-9.223-20.719-11.681Zm-41.588 22.724c6.247-.067 16.046.684 22.638 1.437.348.301.697.602 1.041.903-2.475-.414-4.317.047-6.347-.154-4.87-.484-13.059-.355-17.332-2.186ZM292.794 367.56l.578.1.176.313c-1.785 1.229-3.094 1.269-4.945 2.21-3.697 1.874-7.044 3.608-10.436 5.987l-.611.124-.269-.356c3.297-4.009 10.796-6.7 15.507-8.378Zm-12.512-187.871.218.192c-1.79 2.063-5.492 4.849-7.698 6.649-6.904 5.636-10.957 11.493-15.742 18.782-10.098 15.377-12.681 30.547-14.594 48.448-.461-.385-.737-.458-.756-.999-.311-13.898 2.945-28.161 9.104-40.615 4.554-9.206 19.495-29.236 29.468-32.457Zm-39.139 90.074c.569 1.676 1.393 6.714 1.69 8.541 2.045 12.557 5.476 24.288 11.98 35.3 2.365 4.004 5.298 6.49 6.4 11.137-9.585-8.442-14.659-20.776-18.021-32.879-1.262-4.547-3.465-17.927-2.049-22.099Z"/>
  <path d="M270.215 195.376c.125 2.161-3.714 7.367-4.838 9.671-2.982 6.112-5.426 12.533-7.889 18.861-1.188 3.056-2.033 7.65-3.724 10.117-.109-.235-.293-.578-.257-.824 1.743-11.621 9.419-29.044 16.708-37.825Zm-16.146 107.108.248-.062c2.53 2.854 9.351 15.337 11.469 19.301-2.945-1.155-11.1-16.029-11.717-19.239Zm267.415 179.711.3.501c-1.013 1.057-2.426 1.49-3.804 2.058l-.204-.204.112-.461 3.596-1.894ZM503.011 247.44c-.769-.976-14.34-7.866-16.459-9.29-4.773-3.208-9.815-6.668-14.777-9.606-5.013-2.972-12.846-5.765-17.443-8.372l-.121-.459c2.303.101 3.725 1.064 5.887 1.734 12.567 3.881 23.207 11.829 34.167 18.79 2.407 1.527 7.261 5.147 9.811 5.864l.597.421c-.709.384-.965.429-1.502 1.026l-.16-.108Zm-25.946-25.805c11.693 5.916 21.541 12.929 31.86 20.89l-1.065 1.019c-.869-1.091-12.831-9.186-14.985-10.793-5.102-3.806-10.708-6.567-15.81-11.116Zm15.702 55.49c.457-7.925 4.601-19.654 11.001-24.745-3.156 6.341-6.348 10.75-8.142 18.264-.42 1.761-1.453 5.477-2.859 6.481Zm26.03-133.672c4.645 1.845 2.531 9.879 5.646 15.785 3.588 6.802 11.149 8.009 12.739 10.541-7.717 3.612-11.79 3.428-14.433 12.479-1.081 3.699-.744 10.018-3.315 12.303-3.184-4.732-2.315-11.257-6.356-16.653-3.287-4.389-10.668-4.826-12.202-8.249 1.919-2.988 6.091-.397 9.956-4.254 6.419-6.401 7.208-13.746 7.965-21.952Zm.589 35.741.18.751c2.331-1.562 3.736-8.977 9.01-9.312.252-.091.509-.182.765-.273-.372-1.098-3.776-4.094-4.898-5.034-1.714-1.437-3.788-7.437-4.509-8.12-2.066 4.433-4.649 10.56-9.539 12.187-.704.234-1.954.575-2.442.924l.596.635c3.857-.251 8.786 5.337 10.837 8.242ZM265.766 73.85c1.125.24 1.934.81 2.367 1.923 8.604 22.078 15.033 44.943 22.995 67.219 1.194 3.341 2.621 5.184 1.15 8.456-.497-.023-1.651-.037-1.886-.371-2.997-4.26-8.248-20.662-9.745-25.091l-10.791-32.582c-1.546-4.686-6.203-15.26-4.09-19.554Zm-59.046 32.883c3.505 1.48 26.674 30.919 30.483 35.592l12.509 15.298c2.13 2.61 8.196 9.305 8.192 12.327-1.941-.087-3.503.05-4.859-1.556-15.287-18.122-30.434-36.543-44.694-55.492-1.724-2.291-2.131-3.419-1.631-6.169Zm-39.747 48.97c.478.059 3.68.465 3.927.627 20.348 13.379 42.401 25.183 61.363 40.364.266.213-.415 1.679-.535 2.006-.106.001-.211.004-.317.001-.175-.004-.35-.016-.525-.022-.44-.014-.868-.022-1.305-.095-1.354-.222-51.978-32.683-56.944-36.106-1.58-1.09-4.464-2.811-5.431-4.508-.588-1.03-.519-1.18-.233-2.267Zm-16.247 56.959c11.011 3 22.141 6.565 33.132 9.725 5.393 1.55 32.771 7.72 34.177 11.378-.738 1.125-.421.762-2.174 1.152-7.302-.914-66.352-15.933-67.923-20.954.906-1.031 1.439-1.004 2.788-1.301Zm55.678 58.62c2.036-.342 4.472-.311 5.159 1.922l-.516.863c-5.087 3.006-55.179 2.759-65.198 4.191-.909-.051-1.817-.107-2.725-.17-1.722-.105-4.355-.505-3.934-2.846 2.568-2.05 12.751-1.205 16.775-1.529 16.769-1.351 33.643-1.666 50.439-2.431ZM331.663 72.605c1.276.79 1.359.727 2.103 2.087.627 9.269 2.905 61.176.941 66.32-1.324.609-.674.53-1.988.44-.372-.359-.396-.338-.694-.866-1.106-1.959-1.772-49.073-1.651-55.15.076-3.83-.16-9.31 1.289-12.831ZM224.258 313.242l.32.514c-.138 1.242-.401 2.833-1.715 3.376-18.557 7.67-36.989 15.724-55.445 23.679-1.214.523-2.672.381-3.923.227-.925-.932-.733-.387-.846-1.561 4.284-3.554 55.179-24.758 61.609-26.235ZM396.341 95.856c3.18 1.667 1.001 6.267-.28 8.666-3.973 7.448-14.068 39.545-18.922 44.209-1.141-.611-1.129-.598-2.066-1.488-.617-3.198 17.88-46.252 21.268-51.387Zm51.367 37.722.464.234c.817 1.177 1.077 1.368 1.085 2.814-1.197 2.578-30.326 34.398-32.969 36.306-1.062-.681-1.017-.603-1.634-1.697.548-4.327 27.948-32.624 33.054-37.657Zm-189.217-4.121c1.023.295 1.925.88 2.595 1.81 5.3 7.349 9.589 15.825 14.125 23.69.333.578.203 1.598.145 2.195l-1.561.432c-4.461-1.229-15.082-23.341-15.304-28.127Zm289.835 57.797c.749.934 1.762 5.451 2.639 7.532 1.806 1.084 4.329 1.483 5.118 2.374-.805 1.294-4.124 2.384-4.429 2.725-1.005 1.135-2.591 6.114-3.199 7.784-1.278-2.202-1.734-4.549-3.464-7.532-1.53-.795-4.966-1.694-5.266-3.504 1.137-.537 3.247-1.158 4.02-1.657 3.396-2.188 1.674-4.604 4.581-7.722ZM305.97 113.607c2.927 2.207 5.452 16.428 6.588 20.532.906 3.271 1.564 6.299.016 9.431l-1.362.022c-2.818-2.948-7.266-26.048-5.242-29.985Zm52.756.214.889.28c2.162 2.918-2.511 22.482-4.089 26.602l-1.53 1.122c-.488-.147-1.433-.692-1.413-1.253.248-6.939 2.319-21.013 6.143-26.751Zm49.324 20.365.453.044.352.714c-.885 4.78-9.298 21.114-13.759 22.452-.645-1.09-1.074-1.969-.541-3.233 2.663-6.314 8.378-15.615 13.495-19.977Zm-186.962 29.358c6.004 1.543 13.124 8.661 17.957 12.637 1.779 1.462 3.027 2.665 2.016 4.812l-.842.349c-3.955-.306-13.235-10.23-16.623-13.119-2.031-1.732-2.427-2.191-2.508-4.679Zm-17.043 40.424c.516.125 1.029.26 1.541.404 3.334.947 14.094 4.917 15.992 8.25.267.469-.265 1.531-.49 2.197-3.052-.155-15.271-5.878-17.265-8.241-.37-1.744-.423-.903.222-2.61Zm10.475 90.967c1.342-.184 1.939-.09 2.713 1.034l-.169.77c-2.209 1.997-14.011 5.186-17.05 5.407-1.074-.09-1.887-.033-2.768-.619l-.022-.694c2.797-3.05 13.133-5.665 17.296-5.898Zm-23.436-46.673c3.583-.278 18.852 1.914 21.288 4.51l-.422.974c-2.567.864-19.982-1.695-21.28-3.849l.414-1.635Zm42.638 84.252c.346 1.162.42 1.11.117 2.26-3.129 4.174-11.298 9.07-16.267 10.738-.324-.656-.736-1.211-.207-1.977 2.474-3.579 12.819-9.526 16.357-11.021Zm15.152 13.535c1.162.285.679.009 1.519.826.178 4.041-8.697 12.779-13.018 13.446l-.144.296-.481.162-.316-.673c1.056-3.133 4.096-4.994 6.364-7.278 2.191-2.206 3.935-4.567 6.076-6.779Zm193.148-168.708c.18.101.632.545.808.704.061.838.249 1.529-.5 2.191-3.108 2.756-7.465 6.826-11.517 7.493l-.517-.312c-.128-.543-.38-1.102-.128-1.501 1.83-2.902 8.93-7.496 11.854-8.575Z"/>
</svg>
