<svg xmlns="http://www.w3.org/2000/svg" width="700" height="700" fill="currentColor" viewBox="0 0 700 700">
  <path d="M202.488 263.23c-10.795-6.29-17.217-16.299-20.282-28.251-.987-3.852-2.59-10.537 1.975-12.554 6.819.152 18.541 7.677 23.232 12.781 6.361 6.921 9.137 12.986 10.597 22.287.369 2.352 1.175 6.628 1.939 8.805 7.147 3.435 10.879 2.874 17.769 4.847 3.108-3.221 9.326-10.87 14.328-6.807 2.103 5.797-4.924 7.026-4.268 12.308 2.254 4.034 18.062 8.944 22.788 10.277 34.177 9.638 68.343 10.351 103.724 9.437 33.11-.855 70.114-.955 100.484-16.66 1.813-.938 4.058-2.444 5.532-3.795-2.632-3.441-4.774-6.117-7.655-9.34 1.064-1.519 2.184-3.185 3.314-4.644 12.443 5.992 17.25 16.87 11.271 29.274-4.35 9.029-10.423 10.427-16.699 17.161-3.018 3.834-7.782 12.171-11.082 16.65-13.375 18.15-65.039 91.112-79.887 99.66.033 23.441.715 46.849.202 70.286-.075 3.35-.005 7.2-.791 10.724-2.222 9.994-13.629 18.357-23.704 18.749-7.532-.354-8.634-4.114-9.161-10.508-1.337-16.166-.203-32.078-.273-48.197l-.09-24.596c-.056-4.288-.404-12.335-.066-16.326-13.857-12.948-22.89-24.007-34.984-38.688a793.976 793.976 0 0 1-38.268-49.778c-6.348-9.051-12.187-18.533-18.433-27.602-2.924-4.245-10.387-8.727-13.021-14.072-2.252-4.57-3.167-7.312-3.346-12.567-.022-.7-.033-1.401-.033-2.102-10.937-4.963-7.715-3.186-19.643-3.116-1.613.009-8.588-2.179-10.943-2.722l-.579.191c-14.145 4.801-22.802 12.198-39.242 4.644-3.744-1.72-6.965-4.77-10.586-6.803-1.937-1.087-7.512-3.127-8.814-4.335 1.707-4.774 14.48-8.038 19.066-8.999 10.901-2.282 24.716.919 34.79 5.263 1.62.507 2.975 1.158 4.578.816-1.186-1.097-2.093-1.152-3.739-1.698Zm103.303 102.457c3.059-.134 25.313 2.03 26.444 3.611-3.584 2.765-20 .446-24.137-.594 5.227 8.515 32.183 40.912 39.372 46.745 2.919 2.37 6.228 4.048 9.905 4.872a24.756 24.756 0 0 0 18.652-3.255c8.159-5.231 21.897-24.848 28.459-33.308a2635.479 2635.479 0 0 0 31.783-41.823c3.884-5.299 17.918-25.817 21.317-28.598l1.671-1.367c-11.609 3.709-33.651 7.062-45.435 8.041-35.911 2.985-118.567 2.547-150.621-11.447 1.637 3.078 3.909 6.16 5.987 8.987 11.922 16.221 23.737 32.648 36.603 48.136ZM173.25 266.903a574.78 574.78 0 0 0-10.142.974c8.466 4.613 12.666 6.754 22.632 5.288 3.763-.783 5.298-1.24 8.911-2.568-6.795-2.415-14.14-4.232-21.401-3.694Zm180.015 160.486c.221 14.946.805 30.123.659 45.059-.07 7.247-.569 38.435.824 43.557 4.162 2.224 9.943-3.115 13.027-5.739 6.059-7.549 3.088-13.575 2.994-22.457l-.028-29.68c-.029-10.102-.358-20.93 1.153-30.876-6.775 1.455-11.878 1.804-18.629.136ZM210.272 257.608c-3.776-11.381-8.989-19.847-20.166-25.549 2.01 9.686 10.081 22.921 20.166 25.549Zm40.172 35.116c22.909 20.89 113.362 21.689 144.66 20.33 23.096-1.002 67.943-4.574 83.695-23.112.928-1.092 1.479-1.547 1.479-2.923-10.744 4.787-21.285 9.205-32.96 11.561-21.83 4.407-44.654 5.535-66.945 6.146-42.083 1.153-86.845.074-126.914-14.109-2.491-.882-5.35-2.252-7.722-3.426l4.707 5.533Z"/>
  <path d="M288.496 336.425c5.471.73 11.362 2.109 16.911 2.894 3.904.553 17.127 1.399 19.386 3.987l-.3 1.101c-2.007.112-7.177-.34-9.055-.761-5.209-1.168-25.145-1.47-27.645-6.159l.703-1.062Zm13.297 20c4.526.366 10.377 1.878 15.612 2.216 5.555.359 11.797 1.166 17.492 1.367 1.073.037 1.402 1.123 1.896 1.989-8.184 1.031-26.61.302-34.584-3.338-.431-.197-.381-1.721-.416-2.234Zm-9-10.95c4.492-.564 25.713 3.767 31.571 4.902 1.132.22 1.162.846 1.429 1.576-4.749 1.731-21.367-1.785-27.048-2.825-2.987-.547-4.411-1.187-5.952-3.653Zm53.568 15.009c.977-.272 1.971.408 2.311 1.589.344 1.181-.068 2.496-.96 3.073-.693.445-1.526.351-2.142-.241-.612-.592-.896-1.576-.731-2.523.17-.947.761-1.687 1.522-1.898Zm12.836 71.941c1.235.431 2.845 1.45 2.802 2.682-.279 8.574 2.37 58.914-.712 63.318-.639-.451-1.256-.929-1.673-1.574-2.317-3.583-2.386-58.672-.417-64.426Zm62.123-367c3.552 1.434 3.787 11.881 4.471 15.605 8.334 45.604 26.105 108.424-20.926 139.341-16.511 10.854-33.542 11.339-43.328 30.144 21.049.227 39.574 1.336 58.991-8.913 6.423-2.802 23.044-14.636 24.727-22.143 4.339-19.36 6.48-19.315 28.119-22.242a238.282 238.282 0 0 0 13.922-2.234c7.103-1.414 16.568-4.193 23.063-7.396-8.098-11.106-41.032-19.976-54.209-24.345-4.348-1.443-17.865-1.614-15.196-8.591 1.274-.808 1.971-.811 3.452-.724 17.601 1.027 59.793 13.113 71.202 26.424 1.839 2.147 3.443 4.836 3.15 7.765-1.15 11.563-54.345 86.052-65.749 94.598-1.896 1.42-5.674 4.331-8.051 3.99l-.273-.417c.122-2.001 1.405-4.09 2.556-5.715 14.955-21.162 30.74-41.792 45.375-63.186 4.094-5.992 8.522-12.163 12.206-18.395-7.867 3.419-20.662 5.194-29.321 6.59-4.674.754-13.211 1.372-17.611 3.304-4.075 1.789-3.631 12.505-4.867 17.177-5.876 22.227-17.035 43.217-30.245 61.935-1.444 2.048-3.5 4.123-5.948 4.428-1.264-.68-.735-.2-1.438-1.671 1.193-6.851 11.673-23.624 15.531-30.931a228.59 228.59 0 0 0 9.8-21.423c-13.154 11.687-35.924 20.243-53.242 20.43-25.284.274-74.295.509-96.636-11.86 2.539 5.601 8.531 15.239 11.861 20.664 6.534 1.893 14.182 3.367 20.888 4.496 9.577 1.901 18.403 3.028 28.298 5.209-9.814 2.208-36.646-3.182-47.047-5.424l5.484 8.443c5.218 1.653 20.965 2.872 26.887 3.373 3.81.323 8.691.226 12.323 1.381l.25.681c-3.849 2.479-31.018-.143-37.056-.613.57 2.381 1.621 4.604.434 6.708-5.69 1.684-14.976-14.099-17.358-18.742-8.352-16.279-30.892-44.45-7.362-58.36-8.364-10.381-11.03-7.602-22.589-8.906-15.647-1.764-34.179-2.628-48.633-9.02 8.075 12.795 17.368 25.6 26.141 37.858 4.987 6.968 34.328 44.069 33.368 48.453l-.793.391c-2.697-.402-5.073-2.066-7.181-3.73-11.639-9.193-64.928-83.654-65.942-95.232-.13-1.476.251-2.4 1.201-3.547 3.342-4.037 9.263-6.638 13.891-8.837 23.792-11.299 49.374-16.526 75.394-19.444 5.85-.656 19.541-3.171 24.082.458.515 1.244.788 3.06-.618 4.05-.978.689-3.678 1.351-4.908 1.503-15.998 1.974-32.114 3.204-47.902 6.632-18.18 3.964-37.226 10.039-52.882 20.406 16.383 9.5 48.278 11.374 67.33 11.709 1.47.026 5.491.271 6.663.924 8.301 4.625 12.386 15.439 17.55 22.884 3.926 5.66 7.404 9.547 11.672 14.287 9.613 10.673 19.614 13.48 33.753 13.933-.731-15.03 2.612-17.038-9.53-29.676-8.188-8.523-14.467-19.832-16.46-31.441-1.167-6.796-2.621-12.972-1.628-19.987 4.478-58.562 63.282-71.06 100.894-103.03Zm-71.654 154.969c2.415-8.063 5.362-17.766 7.805-25.987.029-.09-.523-1.189-.466-1.087-.552-.983-2.792-4.109-3.09-4.968-3.513-10.066-5.187-27.849-2.971-37.815.297-1.286.618-2.566.967-3.838l.245.796c1.953 6.524 5.952 32.159 8.381 35.391 1.212-1.104 2.231-5.113 2.82-6.792 2.854-8.15 6.721-15.798 10.221-23.665.028-1.276-.184-1.252-.925-2.207-1.589-2.046-1.16-5.126-1.391-7.598-.774-8.357.424-14.59 2.641-22.582.641 8.202 2.476 16.342 3.193 24.509 5.395-10.276 20.629-43.192 29.83-49.118l.533.33c-.009 6.39-11.814 24.5-15.092 31.508-1.853 3.289-4.103 7.058-5.711 10.418 6.857-5.9 17.068-12.97 24.892-17.486-5.183 9.044-15.549 15.62-22.539 22.781-8.352 8.556-16.856 27.601-20.95 38.901 7.646-6.626 33.769-22.82 43.121-25.652-5.211 6.054-9.13 10.016-15.507 14.955-8.923 6.907-22.364 13.158-28.59 22.574-3.141 4.752-5.659 14.511-7.145 20.136-2.702 10.244-5.428 23.763-5.938 34.311l.283-.611c8.122-17.102 22.709-21.458 38.263-29.428 47.361-24.269 36.061-80.235 27.798-122.837-.476-2.474-1.981-13.036-3.018-14.53-7.325 5.925-17.337 10.925-25.35 15.43-28.996 16.303-59.898 32.969-62.969 70.054-2.046 18.889 2.484 31.681 13.957 46.312a142.987 142.987 0 0 0 6.702 7.795Zm-38.737 23.867c-2.888-3.359-16.197-19.668-18.632-20.397-15.523 12.725 4.001 16.957 14.169 19.292 1.469.376 2.987.791 4.463 1.105Z"/>
  <path d="m395.826 191.425 1.655.065.312.622c-1.551 3.292-27.678 21.04-31.801 23.313-1.802-.159-1.206.259-2.199-.771.251-10.431 23.861-20.783 32.033-23.229Zm-31.87 351c2.895 2.511 4.295 12.917 6.162 17.663 5.573 14.213 15.436 26.905 18.152 42.1 2.899 16.224-6.45 29.945-23.159 32.237a49.79 49.79 0 0 1-2.89-.085c-16.78-1.122-23.591-18.028-22.268-32.61a71.365 71.365 0 0 1 3.584-16.313c3.328-9.535 9.033-18.73 13.347-27.891 2.39-5.07 2.626-11.397 7.072-15.101Zm1.815 84.568c14.144-3.517 18.086-15.419 14.083-28.233-3.197-10.237-8.26-19.287-12.852-28.93-1.203-2.549-2.886-8.236-3.961-10.134-7.227 16.817-21.004 36.955-14.125 55.905 2.664 7.352 8.935 11.692 16.855 11.392Z"/>
  <path d="M355.146 600.425c1.988 1.669.812 7.043 2.338 9.474.777 1.238 2.255 2.531 3.309 3.512l-.156.995c-1.08.042-1.637.051-2.674-.412-1.594-.702-2.847-2.064-3.478-3.77-1.27-3.412-.639-6.576.661-9.799Zm180.838-497c3.408 1.462 3.125 14.402 6.892 19.179 4.947 6.282 9.942 4.193 14.917 8.181-.184.83-11.013 4.603-13.255 6.298-6.434 4.861-4.499 11.759-5.882 18.791-.316 1.604-.949 2.684-2.247 3.551-3.592-5.656-2.271-9.718-4.272-15.853-2.922-8.953-10.692-8.273-18.344-11.916.349-1.895 11.834-4.267 14.431-6.668 7.378-6.831 3.228-14.493 7.76-21.563Zm-5.513 27.197c1.09.988 5.084 5.054 5.943 5.226 2.294-2.297 3.162-3.11 5.806-5.012-3.375-2.355-4.074-5.228-6.146-6.757-1.714 3.237-2.696 4.255-5.603 6.543Zm40.889 22.803c1.968 1.805 2.181 5.42 3.228 8.008 1.473 3.628 5.809 4.885 9.205 6.313-3.048 1.356-5.568 2.323-8.264 4.338-1.344 2.363-2.228 5.669-3.048 8.341-1.316-.311-1.886-2.331-2.321-3.514-2.015-5.462-4.554-6.773-9.367-8.925 1.399-1.092 3.627-2.291 4.822-3.516 2.923-2.999 3.595-7.376 5.745-11.045Zm-113.462 97c.561.63.968.805.884 1.546-.482 4.217-8.51 15.267-11.119 18.454l-.37-.046-.5-.651c.009-4.934 8.052-15.596 11.105-19.303Zm-256.189 13c1.798.608 2.789.67 4.084 1.893-1.751.382-3.231-.344-5-.909l.916-.984Z"/>
</svg>
