<svg xmlns="http://www.w3.org/2000/svg" width="700" height="700" fill="currentColor" viewBox="0 0 700 700">
  <path d="M177.246 597.095c5.207-.31 12.186.86 17.537 1.465a766.15 766.15 0 0 0 21.92 2.085c19.793 1.59 44.868 2.34 65.013 2.695l64.744.55c4.625.01 23.515-1.37 25.26 1.255l-.81 1.035c-4.28 1.575-23.51 1.64-29.3 1.75-36.505 1.055-73.041.42-109.489-1.905-14.498-1.01-29.287-2.185-43.641-4.45-4.04-.64-8.827-1.13-11.234-4.48Zm277.729-98.27c2.09 1.055 4.785 6.58 6.06 8.915a359.865 359.865 0 0 1 27.015 63.605c-.26-.1-.52-.205-.775-.305-2.8-1.81-5.905-12.35-7.245-15.85-3.795-9.895-7.58-18.88-12.015-28.44-3.695-7.97-10.74-20.075-13.04-27.925Zm-34.75 15.4 1.245 1.025c1.865 4.41 4.735 26.77 4.445 31.9-2.85-3.55-4.05-25.995-5.69-32.925Zm9.585-1.43c3.06 1.865 6.955 17.615 7.105 21.33-2.575-2.305-6.07-17.3-7.105-21.33Zm-15.765 6.015.825.95c.815 6.425 1.53 13.405.89 19.855-.975-1.14-1.795-18.275-1.715-20.805Zm120.575-93.97c.175.53.325 1.12.15 1.675-8.385 26.505-28.45 61.885-51.495 77.81-.085-.385-.18-1.39.01-1.625 3.115-3.82 7.81-7.755 11.03-11.345a207.813 207.813 0 0 0 29.72-43.89c3.71-7.435 6.71-15.215 10.585-22.625Zm-32.27-98.13c3.56 5.004 5.525 13.646 6.63 19.631 4.025 21.799 2.26 43.204-4.45 64.304l-.96.065c-1.185-2.015.22-5.995.83-8.33 4.645-17.82 4.895-36.537 1.925-54.66-1.085-6.612-3.29-13.52-3.915-20.295l-.06-.715Zm-50.63-52.733c21.49 3.762 41.82 27.475 48.93 47.166-3.075-1.898-5.275-6.721-7.19-9.789-7.76-12.414-16.065-22.06-28.935-29.405-3.66-2.089-10.065-5.027-12.805-7.972Zm4.535-55.196c10.14 2.666 31.545 23.526 37.84 32.863-.9-.367-10.425-9.231-11.52-10.526-5.125-6.072-23.935-16.63-26.32-22.337Zm45.81 249.509.81.465c-.91 5.75-14.225 18.84-19.585 22.36l-.64-.19-.255-.6c9.65-8.94 11.75-12.47 19.67-22.035ZM361.64 225.338c.49 1.885-4.62 16.643-5.94 19.983-3.165 8.03-5.565 20.897-9.48 27.9-.08-.309-.45-1.695-.425-2.011.615-8.44 11.635-40.613 15.845-45.872Zm5.5 11.002.47.48c-.18 3.317-12.13 35.507-13.995 39.93l-.53-.493c-.465-5.388 10.95-34.698 14.055-39.917Zm5.055 1.034c.33 5.591-11.225 37.584-14.76 44.03-.51-2.15 12.71-39.944 14.76-44.03Zm19.78-102.457c.785 2.473-10.57 29.876-12.935 33.902-1.305-4.699 9.935-29.186 12.935-33.902Zm-90.651 88.447.431.456c.213 2.454-8.084 21.371-9.716 24.314l-.258-.056-.26-.557c2.938-10.238 4.59-14.964 9.803-24.157Zm92.296-79.04c1.35 5.249-4.08 16.482-6.395 21.285-.38-3.379 4.745-17.688 6.395-21.285Zm5.715.57c.33 3.276-5.69 16.785-7.39 20.245-.86-3.891 5.275-16.507 7.39-20.245Zm2.985 2.56.28.294c.185 3.368-4.87 15.146-6.545 18.541l-.285-.126c-.445-2.273 5.275-16.015 6.55-18.709Zm18.385 271.031c-9.67.175-107.105-.08-109.876-1.07 4.909-1.845 98.596-.205 109.921.35l-.045.72Zm7.59-231.204c19.035 4.791 16.715 58.157-23.16 46.157-1.515-.786-2.195-.988-2.73-2.274 3.38-2.044 13.885 4.316 22.56-1.648 5.985-3.532 9.68-9.148 11.265-15.811 2.76-11.603-2.44-17.448-7.935-26.424Zm-18.785-3.701c5.755-.406 6.34-.043 11.775 2.081-10.355-.018-18.47 1.067-25.4 9.948-4.965 6.363-5.835 13.202-4.805 20.965.35 1.951.695 3.349.645 5.319l-.98-.392c-1.305-1.805-1.81-3.266-2.405-5.439a25.75 25.75 0 0 1 2.655-19.657c4.15-7.119 10.77-10.904 18.515-12.825Z"/>
  <path d="M430.38 211.931c.425.463.32.565.495 1.306-3.44 11.614-10.07 16.32-21.665 17.927l-.31-.559c.825-1.94 8.315-3.168 11.125-5.317 5.3-4.061 7.165-7.741 10.355-13.357Zm-17.53 243.904c9.01-1.145 17.255 5.205 18.45 14.215 1.195 9.005-5.11 17.285-14.11 18.53-9.07 1.255-17.43-5.11-18.635-14.19-1.205-9.075 5.21-17.4 14.295-18.555Zm3.49-203.326.49.128c-1.015 5.663-1.625 7.99-4.26 13.073.605-4.16 2.43-9.125 3.77-13.201ZM384.655 501.37c1.445 4.985 1.91 27.175.795 32.475-.405-.205-.9-.36-.955-.705-.79-4.825-1.065-28.585.16-31.77Zm-63.318 30.835c2.357-.37 4.996-.13 7.411-.03-8.862 2.125-20.838 2.585-30.242 3.78-1.871.075-3.743.125-5.615.145l-.178-.235c10.445-1.68 18.12-2.635 28.624-3.66Zm200.138 67.12c2.915 3.425 2.785 14.97 2.32 19.355-2.02-3.36-3.27-15.565-2.32-19.355ZM131.032 335.741c13.805 4.212 23.876 19.655 19.072 33.701-2.958 8.648-4.133 11.528-.637 20.518 2.299 5.915 3.589 10.28 7.588 15.45.131-13.135-5.571-19.12 1.361-32.817 4.611-9.114 12.185-14.534 21.9-17.69 2.462.928 1.827 2.925 2.507 4.896 1.791 5.189.924 8.016.286 13.132-1.236 9.909-5.677 17.309-14.636 22.024-3.191 1.76-4.99 2.355-8.043 4.56.338 7.845 1.134 14.735 6.067 21.2.541 1.07.451.5.239 1.71-6.141-.715-16-17.045-23.239-19.795-4.363-1.505-9.769.445-14.626.945-9.456.97-35.068-15.45-29.114-25.76 2.145-1.765 6.878-2.18 9.789-2.51a31.415 31.415 0 0 1 26.983 10.28c3.759 4.175 5.85 7.84 10.316 11.34l.655.51c-5.573-17.93-16.582-20.905-20.026-38.146-1.417-7.091-.516-17.491 3.558-23.548ZM507.55 125.555c.72.264 1.355.315 1.56.891 1.65 4.653 2.71 12.881 5.65 17.137 1.455 2.107 10.755 6.808 13.725 8.73.13 2.479-8.44 1.879-12.195 6.23-6.195 7.187-4.42 16.103-8.09 22.457-2.96-2.404-3.63-15.807-7.735-20.456-3.695-4.186-11-4.078-13.305-7.057l.18-.624c19.555-8.821 14.35-9.733 20.21-27.308Zm28.01 46.242c1.91 2.184 1.14 3.443 2.095 6.044 1.255 3.435 4.135 3.004 7.01 4.928l.025.673c-12.385 4.946-4.59 5.938-9.58 11.305-2.055-3.964-2.385-4.514-3.85-8.72-2.335-.744-4.385-1.511-6.665-2.378 3.23-2.409 7.725-2.424 9.19-7.609.36-1.283 1.18-3.011 1.775-4.243Z"/>
  <path d="M382.311 35.024c14.701-.746 49.426 15.522 59.485 26.936 2.841 3.227-5.365 17.45-8.77 18.836-1.904.194-2.881-.453-4.645-1.226-4.59 11.127-11.63 24.812-17.11 35.581 7.139 5.407 10.136 9.185 12.855 17.665-2.454 4.788-1.395 3.479-.7 6.509 1.318 5.749-7.27 24.463-10.065 29.623 20.924-.054 35.73 12.523 42.25 31.847 6.064 1.067 8.966 2.499 14.386 5.539 41.253 23.146 66.759 69.396 79.654 113.36 15.649 53.887 6.785 110.332-20.935 158.782-7.42 12.975-21.69 32.564-35.95 40.724-1.774 1.015-1.996-.143-3.655 1.946 2.13 5.409 5.265 11.39 7.665 16.804a393.018 393.018 0 0 1 11.846 29.951 58.93 58.93 0 0 1 2.099-.095c12.235-.32 25.46 2.81 34.505 11.43 1.67 7.191 5.12 28.58 2.356 34.9-2.581 5.889-14.14 9.61-19.701 11.64-22.714 8.294-51.07 11.62-75.165 13.895-25.354 2.39-51.156 3.604-76.61 4.154-38 .825-168.974.65-198.467-13.314-2.861-1.355-6.751-3.456-7.767-6.695-2.486-7.93-2.63-24.2 1.316-31.76 13.069-25.04 84.631-22.405 110.022-22.18 15.858.14 31.849.5 47.696.085 11.89-.315 25.506-1.041 36.82-4.685 6.979-2.245 9.315-5.742 12.5-11.991-9.424 1.455-12.744.13-11.149-9.914-8.05-.245-16.126-.13-24.186-.485-3.699-.165-9.513-2.1-13.023-1.695-5.635.655-11.467 1.935-17.22 2.985-16.789 3.065-42.862 8.144-59.034 1.45-9.924-4.11-9.393-14.536-12.316-22.975.391-1.11 1.353-3.894 2.202-4.51 14.985-10.83 55.271-14.62 71.594-15.34 13.678-.69 25.983-.87 37.353 6.925 1.17 3.454 2.405 6.43 3.804 9.8 3.605.39 7.221.735 10.835 1.035-1.585-16.075-2.84-42.455-2.73-58.66-4.399.03-5.501-.134-9.665 1.395l-2.705 5.19c-13.445 7.904-53.567 5.32-69.287 3.04-3.716-.54-5.289-7.441-7.027-7.79-5.411-1.07-9.48-.866-15.023-3.165-3.108-5.515-2.841-6.212-3.11-12.48-.22-5.11.427-6.966 3.839-10.685-.751-.66-70.634-.066-78.144-1.935-3.361-2.64-3.069-10.425-3.265-14.365-.919-18.51 2.226-14.866 17.27-14.616l23.555.221 65.127.17c35.925-.12 71.851.194 107.77.944 10.004.24 20.701-.139 30.615.546.325.535.641 1.075.95 1.619 2.824 5.116 2.841 17.551 2.611 23.701-.015.172-1.661 4.137-1.995 5.255.214.954.305 1.73 1.434 2.075 23.684 7.238 45.385-13.851 53.995-32.795 17.685-38.92 7.439-94.24-32.335-114.924-4.659-2.422-9.685-3.793-14.474-6.011-1.48 4.607-1.866 6.212-4.585 10.027-12.97 4.793-47.024-5.788-53.671-18.234-2.24 4.797-5.095 10.656-6.105 15.8-.537 2.731 4.885 6.205 6.51 8.713 2.454 3.786 3.41 6.295 4.75 10.578-3.565 11.456-8.352 19.106-21.934 18.031-5.935-.47-9.002-1.544-14.066-4.718-2.89 6.263-7.665 25.546-8.272 32.369-1.835 20.592-8.833 23.828-28.87 21.299-9.071-1.151-20.467-7.625-19.475-18.933.61-6.956 1.972-14.481 2.919-21.458 1.378-8.273.592-21.662 3.426-29.192-11.764 4.151-13.158 7.363-21.19 16.357-2.063 2.31-6.572 5.092-8.883 7.532-3.205 3.384-5.648 6.643-9.131 9.812l-.596.537c-13.788 2.144-23.935-5.414-30.268-17.111 1.011-9.597 9.687-17.472 14.915-25.223 3.118-4.621 6.376-9.365 9.396-14.032l-.148-.641c-2.715-.533-3.564-1.068-5.664-2.82l-.45-.382c-7.257-20.174 9.988-28.133 26.694-29.479 1.076-5.395 3.024-9.341 4.892-14.434l8.171-22.829a1826.68 1826.68 0 0 1 29.784-78.369c4.489-11.332 8.516-22.833 13.4-33.982 1.048-2.394 2.739-5.936 4.716-7.56 8.418-6.914 14.94-7.58 25.16-6.794 2.345-4.213 16.931-34.192 16.814-36.101-.25-.42-1.706-2.837-1.79-3.217-.87-4.191 3.42-10.159 5.575-13.474 1.855-2.848 3.075-3.502 5.795-4.34Zm66.65 434.357c3.534 18.984-11.611 36.139-29.91 39.069-7.469 1.195-13.165-.47-19.979-3.29-.365 47.999-7.118 80.591-62.352 81.711-2.496.05-4.935-.276-7.393-.635l-.072-.515c1.854-1.07 11.08-2.28 13.731-2.845 6.79-1.455 21.325-5.686 26.23-10.435l.04-.64c-4.274-.46-9.08 1.694-13.405 2.149-6.409.665-13.006.821-19.449.996-33.759.914-131.171-4.8-154.984 15.169-4.403 3.695-5.938 7.936-6.32 13.545-.412 6.065.483 12.331 1.68 18.271 3.943 2.05 7.54 3.905 11.899 4.86 26.131 5.74 54.563 7.2 81.124 8.42 36.7 1.915 73.461 2.494 110.2 1.739 25.71-.81 51.391-2.399 77.005-4.769 4.58-.436 31.722-3.121 33.76-5.15v-.002c3.394-1.055 4.724.585 8.019-.894.4-3.445-1.045-17.305-1.475-21.485l-6.644 1.735c.1 4.14 2.623 13.587 1.239 16.283-2.763-6.487-1.789-9.004-2.004-15.747-6.364.36-12.985 2.035-19.329 2.925-7.75 1.08-45.858 5.637-50.141 2.31-.639-.495-.451-.442-.575-1.315l1.755-1.15-.42-1.06c-4.874-.285-9.17-.525-14.074-.575l-2.361-1.885a41.01 41.01 0 0 0-.001-.001l2.361 1.885c4.905.05 9.2.29 14.075.575 14.311 4.28 64.305-6.954 80.79-9.434 6.111-.921 26.88-7.761 32.045-10.771 18.533-10.795-17.53-15.665-23.561-16.33.6 2.815 1.135 6.205 0 8.96-5.746 13.954-80.042 20.355-95.864 22.19-5.825.675-12.8-.019-18.205 2.25v.001c-1.784.445-1.976.668-3.699.039l-.926-1.049c.145-1.225.246-1.461 1.271-2.3 3.422-2.795 55.844-7.73 63.754-8.915 12.995-1.945 27.436-3.865 39.736-8.6 2.26-.87 6.049-1.856 6.844-4.46 2.779-9.116-25.873-66.531-31.584-77.14-5.69-10.58-12.291-21.115-19.146-30.98-.885-1.269-1.821-2.635-3.3-3.226l-.385.516Zm66.479 131.125a165.249 165.249 0 0 1-17.125 4.119c2.005 6.83 2.195 14.06 3.155 21.06l7.485-1.505c-.585-3.845-2.695-16.459-1.05-19.515 1.205 3.016 2.92 15.255 3.2 18.8 2.455-.625 5.245-1.265 7.635-2.01-1.047-6.027-2.674-14.376-3.3-20.949Zm22.875-9.576c-6.383 3.805-14.121 6.899-21.982 9.307a33.41 33.41 0 0 0-1.093-2.402c.044.847.111 1.742.2 2.671.297-.089.595-.178.893-.269 2.705 6.612 2.9 12.995 4.917 20.073 3.129-.8 5.795-1.44 8.83-2.57-1.1-4.919-2.195-16.739-1.885-21.584 2.92 7.624 2.915 12.5 4.04 20.549 3.68-1.335 5.89-2.265 9.2-4.475-.88-4.325-1.325-19.939-3.12-21.3Zm-156.97-153.909c.175 4.994.305 7.955-.264 12.984l-.341.276c-.955-3.905-1.005-8.451-.935-12.616-.27-.185-.535-.374-.805-.559l-1.209.154-6.826.32c-.16 33.855 1.935 67.956 2.58 101.826.026 1.204.751 1.925 1.5 2.754.135 1.59.27 1.665-.23 3.14l-.864-2.859-.731-.346c-.44 2.145-.38 2.406-.2 4.636 1.64 2.074 10.34 1.139 12.99.684l.99-.165c.2-.035.395-.069.595-.109 1.375-4.455 2.701-9.886 3.231-14.521 1.265-10.464 1.314-22.874 2.789-32.269-14.885-10.595-17.935-34.211-7.175-48.801a46.445 46.445 0 0 1 3.59-4.33c.01-3.32.08-6.895-.045-10.189l-8.64-.01Zm-78.337 88.224c-20.28 1.895-33.638 3.746-53.949 2.696 1.212 5.004 2.415 9.789 7.294 12.639 6.389 3.735 20.697 2.4 28.271 1.84 15.34-1.225 40.333-5.335 54.226-11.389a95.86 95.86 0 0 0-18.348-3.541c-6.384-.565-11.28-.55-17.494-2.245Zm50.937-.134c-1.5 1.769-2.38 2.769-4.08 4.344-2.251 2.085-7.975 4.301-9.17 6.321 1.775.97 9.14 1.215 11.395 1.21 13.655.055 14.616 3.399 14.491-10.34-5.09-1.155-8.156-.72-12.636-1.535Zm-7.13-13.84c-10.944-4.31-21.75-4.436-33.4-3.481-13.181.795-57.536 5.405-65.711 14.41l.298.736c7.123 2.375 23.439 1.629 31.377.72 15.039-1.38 54.139-6.465 67.436-12.385Zm-8.882 8.545c-1.538-.555-1.438-.495-3.054-.13-4.159.59-13.455 1.804-17.05 3.194l8.046.61c3.693.18 10.763.825 13.94-.219l.625-.776c-1.08-.934-1.68-.699-3.397-.929l1.047-1.005-.157-.745Zm118.224-310.648c1.789 8.809-3.167 19.665-7.966 26.805a72.838 72.838 0 0 1-4.54 5.959 308.637 308.637 0 0 1-6.81 38.832 74.033 74.033 0 0 1 45.5 34.395c11.894 20.368 15.265 40.001 13.67 63.282-2.135 31.164-19.176 64.709-52.115 71.63 11.295 11.59 22.881 30.666 30.95 44.51 3.06 5.25 5.326 10.341 8.745 15.63l2.495 4.735c5.285-4.12 12.201-9.11 16.75-14.02 25.76-27.805 41.025-66.216 45.996-103.575 6.944-52.184-11.362-107.797-42.201-149.701-10.959-14.886-26.296-27.749-42.735-35.946-2.224-1.098-5.37-1.693-7.739-2.536Zm-13.182 261.398c-1.285-15.585-14.849-27.246-30.449-26.186a28.6 28.6 0 0 0-23.87 16.2 28.607 28.607 0 0 0 28.585 40.816c15.564-1.515 27.024-15.251 25.734-30.83Zm-100.5-4.646c-17.535-3.65-21.075-4.56-39.38-4.3a1990.918 1990.918 0 0 1-20.934 4.311c12.015 2.73 29.495 2.214 42.271 1.939 6.346-.365 11.803-.545 18.043-1.95Zm-62.877-26.774c-.092 3.735-.561 14.615 1.049 17.59 1.055.419 1.131.45 2.249.629.229-4.684 1.082-12.83-.604-16.95-1.142-1.055-1.14-.934-2.694-1.269Zm-4.585.465c-.852 5.209-.645 10.799-.495 16.099.731 1.005.247.69 1.313 1.165.507-4.17 1.85-12.719.717-16.434-.623-.38-.855-.576-1.535-.83Zm16.57.424c-1.013-1.42-2.586-1.014-4.557-.884-1.902 2.435-.355 12.994-.734 17.689l4.962-.184.79-.036c.166-.492.546-15.173-.461-16.585Zm30.287-1.224c-8.944.155-17.888.23-26.832.22-.034 6.149.191 11.245.553 17.375a374.28 374.28 0 0 1 26.166-.331c.283-5.839.179-11.429.113-17.264Zm3.05-.436c-.003 3.895-.201 13.965.276 17.285 1.731.625 2.98.315 4.826.13.005-4.48.24-12.214-.406-16.399-1.45-1.255-2.67-1.061-4.696-1.016Zm8.074.49c.002 5.46-.153 11.735.339 17.105l7.322-.015c-.85-5.609-.71-11.395-.675-17.08-2.264.015-4.743.085-6.986-.01Zm17.936-.219c-2.805-.055-5.185-.171-7.99.184-.04 4.3-.76 13.47 1.34 16.585 1.47.665 3.716.501 5.301.186.825-6.12 1.634-10.761 1.349-16.955Zm64.765-2.205c-5.465-.16-10.365.18-15.695.12-.125 1.65-.679 4.279.085 5.319l.555-.029c6.375-1.845 9.221-1.846 15.901-2.441.359-1.589.284-1.495-.286-3.049l-.56.08Zm-5.599-23.705c-20.502-.205-220.107-4.13-223.424-1.01-.046 1.888-.157 1.965.589 3.764 2.959.54 6.425.355 9.453.39 20.825.26 41.639-.105 62.456.705 2.941.115 5.551.44 8.448.91l-.721.076c-9.046.939-18.17-.146-27.183.094-16.721.455-33.526-.125-50.211.79-1.192.065-1.528.561-2.309 1.285.055-.19-.206 10.269-.325 10.633a.05.05 0 0 1-.012-.008c.004.02.007.022.012.008 4.297 3.103 207.882-.799 233.043-1.623 1.144-1.061.835-8.318.795-10.264l.044-.72c-.244-1.79-.165-3.086-1.389-4.325-1.73-.62-7.609-.69-9.266-.705Zm-83.495-39.119c-2.904-7.036-22.719-8.891-29.506-8.473-2.162.619-1.977.171-2.806 1.594.428 1.911 2.523 3.391 4.141 4.412 7.979 5.035 16.065 6.13 25.205 4.631 2.176-.975 2.137-.516 2.966-2.164Zm5.207-19.157c1.415-9.575-24.957-10.278-29.804-9.757-1.779.18-3.702-.033-4.536 1.373-2.401 4.054-1.868 10.182-2.816 15.038 12.126-.319 21.224.917 32.225 6.162l1.85.848c2.11-1.668 2.6-10.404 3.081-13.664Zm-26.314-21.784c-3.264.512-4.766.805-7.936 1.75-.144 2.285-.231 4.344-.6 6.611 13.763-.191 19.015-.847 31.945 4.165l4.363 2.308c.262-2.71 1.034-5.494-1.142-7.522-6.403-5.968-18.332-7.235-26.63-7.312Zm-74.235-4.768c5.11 7.881 10.499 14.787 20.879 12.775-3.088-8.041-12.809-12.154-20.879-12.775Zm10.089-16.95c-3.989 4.554-5.918 7.296-8.753 12.665 11.004 2.883 15.449 5.128 22.97 13.997 3.06-3.493 6.489-7.19 8.728-11.238-6.127-9.793-10.518-15.157-22.945-15.424Zm73.129-8.454a287.026 287.026 0 0 0-12.242 5.18c-1.872 7.703-2.789 14.116-3.896 21.988 14.744-1.484 25.52-.332 37.952 7.695l2.389-11.449c.495-4.073-.35-6.593-1.478-10.456-2.319 4.757-4.274 9.668-6.481 14.182.938-4.135 3.971-14.36 3.129-18.006l-.9-.985-.641.243c-1.811 4.46-1.739 7.537-3.999 12.705.323-5.104 1.01-9.753 1.385-14.69-3.899-2.041-11.096-6.519-15.218-6.407Zm53.309 13.465c-2.124 4.348-3.076 6.185-6.334 9.924 2.297.464 4.05-1.487 6.749-.198 1.264-2.673-1.281-.744 1.414-4.952l.825-.567c-.095-1.663-1.499-2.835-2.654-4.207Zm-6.341 9.934.007-.01h-.004l-.003.01Zm3.64-11.615c-1.915 3.267-6.264 7.948-5.754 10.498.771.649 1.466.975 2.117 1.107.83-2.317 4.211-9.813 4.057-11.07l-.42-.535Zm-103.462-26.307c-6.226 2.789-13.384 12.767-15.887 18.842 10.254 3.949 17.524 6.953 22.308 17.786l2.775-2.561c5.363-6.429 13.101-16.701 6.458-24.628-1.449 2.755-1.391 4.796-3.207 6.543l-.351-.363c.526-3.016 1.21-5.901 1.743-8.851-4.318-3.136-8.503-6.972-13.839-6.768Zm1.584-18.73c-3.398-.5-7.236-.897-10.682-.695-4.953 2.17-4.731 4.276-5.682 9.215l1.616 4.805c22.626.059 42.962 6.054 64.407 12.865 6.746 2.142 13.512 4.743 19.785 8.031a89 89 0 0 1 15.931 10.916c8.378 7.214 8.315 11.668 12.714.036.875-3.121 1.239-2.82-1.219-5.172l-.741.05-.25.676c-1.009 2.714-2.465 6.088-4.54 8.138.032-.621 2.39-8.831 2.786-10.533-1.82-2.388-3.286-3.638-5.675-5.341-26.054-18.575-57.052-28.361-88.45-32.991Zm5.08-7.571c-4.809.51-7.231.923-11.756 2.963 10.908 1.668 21.583 3.102 32.347 5.548 26.654 6.056 60.553 21.977 80.533 40.74 1.699 1.979 3.04 3.523 4.54 5.685-.655-8.399-.497-11.135-7.606-16.72-27.38-21.516-63.816-35.732-98.058-38.216Zm122.544-16.336c-.355 2.024.139 1.303-1.18 2.449-1.025.205-2.041.152-2.306.776-2.915 6.861-6.16 17.627-7.58 24.668 2.51 6.423 7.216 10.1 13.586 12.64 8.22 3.28 23.215 8.517 31.734 6.637 4.25-.939 9.006-26.886 10.231-31.452 1.28-4.786 1.255-9.609 3.229-14.74-9.064 4.209-11.66 5.374-21.714 6.315l-.491-.128c-1.484.012-3.379-.178-4.599.484-1.905 6.682-2.44 9.631-5.17 15.891.83-6.255 2.094-10.683 3.609-16.77-2.255-.238-5.56-.483-7.68-.988-1.845 6.479-4.88 16.724-7.875 22.559 1.675-8.729 3.881-14.821 7.045-23.077-2.144-.877-4.474-1.777-6.549-2.762-1.726 5.319-7.831 28.749-10.611 31.053-3.129-4.296 7.25-25.132 6.321-33.555Zm-57.865-139.252c-4.878 6.342-12.072 29.179-15.667 38.157-13.18 32.915-25.273 66.477-36.817 99.998-1.487 4.319-3.351 8.685-4.462 13.096 33.459 4.725 59.446 14.947 87.111 34.446l2.406-5.929c6.109-16.238 12.15-31.023 17.655-47.577-7.42-10.496-12.805-20.553-10.53-33.858a43.248 43.248 0 0 1 17.849-28.186c4.915-3.466 10.231-5.434 15.771-7.632 3.355-6.907 8.7-18.562 10.91-25.785-15.5-21.433-58.176-37.407-84.226-36.73ZM450.341 206.44c-2.115-19.916-20.025-34.312-39.929-32.099-19.765 2.199-34.041 19.956-31.941 39.733 2.101 19.776 19.791 34.139 39.575 32.136 19.924-2.017 34.409-19.855 32.295-39.77Zm-58.076-97.197c-14.395-7.049-30.28-13.214-46.564-12.152-3.125.882-4.876 2.09-7.66 3.748 27.664 4.358 53.56 12.83 75.665 30.611 1.489 1.074 1.62 1.539 3.205 1.729 2.233-3.243-4.381-10.949-6.946-12.776-5.3-3.775-11.93-8.335-17.7-11.16Zm26.742-36.988c-1.98 8.466-9.231 19.787-12.506 28.135-1.07 2.723-3.29 5.539-3.825 8.446 1.059 1.562 1.376 1.673 2.901 2.689 2.723-.505 3.1-5.459 4.46-7.892 4.694-8.411 8.269-18.931 13.569-26.888-1.17-1.469-2.741-2.984-4.599-4.49ZM382.231 56.91c-7.145 6.938-14.33 25.794-19.93 36.066 9.915 2.617 23.126 7.258 32.12 12.306 2.396-5.438 9.85-19.965 13.355-24.396l-.215.749c-2.695 9.063-8.08 16.458-10.795 24.38.844 1.339 1.131 1.277 2.61 1.866l1.13-.174c1.05-1.739 1.656-4.018 2.58-5.927 1.805-3.725 3.73-7.366 5.515-11.101a1282.974 1282.974 0 0 1 10.309-18.502l.097.078c.033-.141.069-.283.099-.423l-.196.345c-9.628-7.759-26.879-15.274-36.679-15.267Zm-.216-16.844c-1.95 3.028-3.585 7.09-5.059 10.445 4.954 1.191 11.824 2.515 16.409 3.96 9.845 3.1 25.336 10.54 34.091 16.258 1.244-1.903 2.875-4.669 4.455-6.184.13 1.485-.161 1.781-.766 3.157-1.01 1.865-1.774 2.73-1.604 4.73l.669.752c3.75-.979 5.115-5.82 6.32-9.041-9.676-9.607-40.815-24.443-54.515-24.077Z"/>
</svg>
